<svg width="747" height="557" viewBox="0 0 747 557" fill="none" xmlns="http://www.w3.org/2000/svg">
<path d="M747 489.136H0V489.509H747V489.136Z" fill="#EBEBEB"/>
<path d="M672.151 513.174H622.669V513.548H672.151V513.174Z" fill="#EBEBEB"/>
<path d="M494.843 517.238H481.86V517.611H494.843V517.238Z" fill="#EBEBEB"/>
<path d="M621.175 499.31H592.505V499.683H621.175V499.31Z" fill="#EBEBEB"/>
<path d="M142.901 501.82H78.3752V502.193H142.901V501.82Z" fill="#EBEBEB"/>
<path d="M165.67 501.82H156.213V502.193H165.67V501.82Z" fill="#EBEBEB"/>
<path d="M336.374 508.124H196.416V508.498H336.374V508.124Z" fill="#EBEBEB"/>
<path d="M354.078 422.503H65.6015C63.3416 422.499 61.1756 421.599 59.579 419.999C57.9824 418.4 57.0857 416.232 57.0857 413.972V8.45604C57.1054 6.2091 58.0108 4.06066 59.6053 2.47738C61.1997 0.894096 63.3545 0.00384912 65.6015 0H354.078C356.34 0 358.51 0.898772 360.11 2.4986C361.71 4.09842 362.609 6.26825 362.609 8.53074V413.972C362.609 416.235 361.71 418.405 360.11 420.005C358.51 421.604 356.34 422.503 354.078 422.503ZM65.6015 0.298801C63.4407 0.302759 61.3697 1.16392 59.8431 2.69327C58.3166 4.22262 57.4592 6.29519 57.4592 8.45604V413.972C57.4592 416.133 58.3166 418.206 59.8431 419.735C61.3697 421.265 63.4407 422.126 65.6015 422.13H354.078C356.24 422.126 358.313 421.265 359.842 419.736C361.371 418.207 362.231 416.135 362.235 413.972V8.45604C362.231 6.29382 361.371 4.22129 359.842 2.69236C358.313 1.16344 356.24 0.30275 354.078 0.298801H65.6015Z" fill="#EBEBEB"/>
<path d="M677.245 422.503H388.754C386.492 422.499 384.325 421.599 382.726 420C381.127 418.401 380.227 416.234 380.223 413.972V8.45604C380.247 6.20774 381.155 4.05931 382.752 2.47644C384.349 0.893574 386.505 0.00380715 388.754 0H677.245C679.49 0.00777552 681.641 0.89976 683.232 2.48262C684.823 4.06548 685.726 6.21168 685.746 8.45604V413.972C685.746 416.23 684.851 418.395 683.258 419.994C681.665 421.593 679.502 422.495 677.245 422.503ZM388.754 0.298801C386.591 0.30275 384.519 1.16344 382.99 2.69236C381.461 4.22129 380.6 6.29382 380.596 8.45604V413.972C380.6 416.135 381.461 418.207 382.99 419.736C384.519 421.265 386.591 422.126 388.754 422.13H677.245C679.407 422.126 681.48 421.265 683.009 419.736C684.538 418.207 685.398 416.135 685.402 413.972V8.45604C685.398 6.29382 684.538 4.22129 683.009 2.69236C681.48 1.16344 679.407 0.30275 677.245 0.298801H388.754Z" fill="#EBEBEB"/>
<path d="M501.088 201.451C535.371 201.451 563.163 173.659 563.163 139.375C563.163 105.092 535.371 77.2996 501.088 77.2996C466.804 77.2996 439.012 105.092 439.012 139.375C439.012 173.659 466.804 201.451 501.088 201.451Z" fill="#F5F5F5"/>
<path d="M611.868 127.139C611.868 124.457 610.802 121.884 608.905 119.987C607.008 118.091 604.436 117.025 601.753 117.025C600.771 117.022 599.794 117.168 598.855 117.458C598.998 116.428 599.073 115.39 599.079 114.351C599.085 111.199 598.393 108.086 597.055 105.233C595.717 102.38 593.764 99.8582 591.337 97.8481C588.91 95.838 586.069 94.3893 583.016 93.6056C579.964 92.822 576.776 92.7228 573.681 93.3152C571.57 89.8483 568.388 87.1617 564.617 85.6603C560.845 84.159 556.688 83.9242 552.772 84.9914C548.855 86.0586 545.392 88.37 542.903 91.5771C540.415 94.7843 539.036 98.7134 538.975 102.772H538.662C534.175 102.904 529.916 104.779 526.79 108C523.663 111.22 521.914 115.532 521.914 120.02C521.914 124.509 523.663 128.821 526.79 132.041C529.916 135.262 534.175 137.137 538.662 137.269H602.082C604.71 137.183 607.201 136.078 609.028 134.187C610.854 132.296 611.873 129.768 611.868 127.139Z" fill="#EBEBEB"/>
<path d="M452.099 182.776C452.099 180.096 451.036 177.526 449.142 175.629C447.249 173.733 444.68 172.666 442 172.662C440.988 172.652 439.98 172.798 439.012 173.095C439.471 170.051 439.266 166.944 438.411 163.987C437.556 161.03 436.071 158.293 434.059 155.964C432.046 153.634 429.553 151.768 426.752 150.494C423.95 149.219 420.905 148.565 417.827 148.578C416.504 148.581 415.183 148.706 413.883 148.952C411.763 145.519 408.59 142.863 404.837 141.381C401.084 139.899 396.953 139.67 393.059 140.729C389.166 141.788 385.719 144.077 383.233 147.255C380.748 150.433 379.356 154.33 379.267 158.364H378.953C374.466 158.496 370.208 160.371 367.081 163.591C363.954 166.812 362.205 171.124 362.205 175.612C362.205 180.101 363.954 184.413 367.081 187.633C370.208 190.853 374.466 192.728 378.953 192.86H442.224C444.861 192.802 447.37 191.714 449.216 189.83C451.061 187.945 452.096 185.414 452.099 182.776Z" fill="#EBEBEB"/>
<path d="M173.304 201.914C173.304 199.234 172.24 196.664 170.347 194.767C168.453 192.871 165.884 191.804 163.205 191.8C162.194 191.794 161.187 191.935 160.217 192.218C160.372 191.194 160.452 190.161 160.456 189.125C160.447 185.978 159.747 182.871 158.405 180.024C157.062 177.177 155.11 174.66 152.687 172.652C150.263 170.643 147.428 169.192 144.382 168.401C141.335 167.61 138.152 167.499 135.058 168.075C132.949 164.603 129.768 161.912 125.995 160.409C122.222 158.905 118.062 158.67 114.143 159.74C110.225 160.81 106.762 163.126 104.276 166.339C101.791 169.551 100.419 173.486 100.367 177.547H100.053C95.5666 177.679 91.3079 179.554 88.1811 182.774C85.0542 185.995 83.3052 190.307 83.3052 194.795C83.3052 199.284 85.0542 203.596 88.1811 206.816C91.3079 210.036 95.5666 211.911 100.053 212.043H163.384C166.038 212 168.567 210.913 170.424 209.016C172.282 207.12 173.316 204.568 173.304 201.914Z" fill="#EBEBEB"/>
<path d="M606.026 250.155C606.026 248.535 605.382 246.981 604.236 245.835C603.091 244.689 601.536 244.045 599.916 244.045C599.319 244.044 598.725 244.13 598.153 244.299C598.421 242.461 598.29 240.586 597.77 238.803C597.249 237.02 596.351 235.369 595.137 233.963C593.923 232.558 592.42 231.43 590.731 230.656C589.042 229.882 587.207 229.48 585.349 229.478C584.552 229.477 583.757 229.552 582.974 229.702C581.688 227.631 579.767 226.031 577.498 225.14C575.229 224.249 572.732 224.115 570.38 224.758C568.029 225.401 565.948 226.787 564.448 228.71C562.949 230.632 562.11 232.987 562.058 235.425H561.744C558.97 235.425 556.31 236.526 554.349 238.488C552.388 240.449 551.286 243.109 551.286 245.883C551.286 248.656 552.388 251.316 554.349 253.277C556.31 255.239 558.97 256.341 561.744 256.341H600.02C600.821 256.329 601.611 256.16 602.346 255.842C603.081 255.525 603.747 255.066 604.304 254.492C604.862 253.918 605.301 253.239 605.597 252.495C605.892 251.751 606.038 250.956 606.026 250.155Z" fill="#EBEBEB"/>
<path d="M236.694 53.6495C236.702 52.6956 236.484 51.7533 236.059 50.8993C235.634 50.0453 235.013 49.3037 234.248 48.7346C233.482 48.1654 232.593 47.7849 231.653 47.6239C230.712 47.4629 229.747 47.526 228.836 47.808C229.104 45.9697 228.973 44.0954 228.453 42.3121C227.932 40.5288 227.035 38.8783 225.82 37.4726C224.606 36.0669 223.103 34.9388 221.414 34.1649C219.726 33.3911 217.89 32.9895 216.032 32.9875C215.23 32.9859 214.43 33.061 213.642 33.2116C212.356 31.1402 210.436 29.5397 208.166 28.6487C205.897 27.7577 203.4 27.6239 201.049 28.2672C198.697 28.9105 196.616 30.2966 195.117 32.2187C193.617 34.1408 192.778 36.4962 192.726 38.9336H192.547C189.773 38.9336 187.113 40.0354 185.152 41.9967C183.191 43.958 182.089 46.618 182.089 49.3916C182.089 52.1653 183.191 54.8253 185.152 56.7865C187.113 58.7478 189.773 59.8496 192.547 59.8496H230.823C232.417 59.7874 233.924 59.1039 235.021 57.9454C236.119 56.7868 236.719 55.245 236.694 53.6495Z" fill="#EBEBEB"/>
<path d="M134.251 281.858L174.708 465.635L182.059 462.184L139.569 280.827L134.251 281.858Z" fill="#EBEBEB"/>
<path d="M598.765 464.753C598.765 464.753 573.696 292.077 630.05 113.544L621.22 106.731C621.22 106.731 555.245 241.789 564.852 469.654L598.765 464.753Z" fill="#E6E6E6"/>
<path d="M645.408 66.6025C666.055 53.0669 696.607 74.5954 700.806 108.24C697.77 106.491 694.598 104.992 691.319 103.758C689.72 95.2873 688.181 87.8024 688.181 87.8024L689.287 102.996C687.464 102.339 685.477 101.697 683.311 101.114L681.817 92.9417L681.145 100.576C678.22 99.8933 675.257 99.3943 672.27 99.0821L668.416 75.1781L666.473 98.604C663.415 98.5191 660.354 98.6539 657.315 99.0074L654.955 82.7825V99.336C652.339 99.7587 649.754 100.353 647.216 101.114L644.392 76.9111C644.392 76.9111 644.467 90.5215 644.317 102.07C637.011 104.718 630.255 108.688 624.387 113.783L624.163 110.795C624.163 110.795 626.539 78.943 645.408 66.6025Z" fill="#E0E0E0"/>
<path d="M616.858 55.7859C600.424 37.335 565.345 50.1237 552.511 81.4977C555.894 80.5895 559.348 79.9648 562.835 79.6302C566.585 71.8763 570.036 65.0487 570.036 65.0487L565.001 79.421C566.928 79.2716 569.005 79.182 571.231 79.182L574.742 71.712L573.397 79.2567C576.399 79.3384 579.393 79.6078 582.361 80.0634L592.326 58.0419L588.113 81.1989C591.091 81.9064 594.013 82.8353 596.853 83.9777L603.382 68.9331L599.094 84.8592C601.516 85.9415 603.857 87.1946 606.101 88.6091L615.169 65.975C615.169 65.975 611.524 79.0923 608.656 90.2675C615.014 94.7404 620.494 100.347 624.821 106.806L625.822 103.982C625.822 103.982 631.813 72.6383 616.858 55.7859Z" fill="#E0E0E0"/>
<path d="M601.066 99.5452C617.5 83.5146 629.841 97.4685 629.841 97.4685C623.67 99.0671 618.157 103.026 613.407 108.061L611.18 105.163L611.539 110.108C610.404 111.422 609.298 112.797 608.237 114.216L604.472 105.656L606.086 117.249C604.592 119.46 603.098 121.731 601.858 124.002L600.2 115.516L600.334 126.766C598.96 129.306 597.734 131.801 596.644 134.146L594.851 118.564L594.612 138.718C591.983 144.933 590.608 149.295 590.608 149.295C590.608 149.295 584.632 115.591 601.066 99.5452Z" fill="#E0E0E0"/>
<path d="M645.408 137.448L642.017 139.405C641.524 136.791 640.941 134.057 640.298 131.278L642.599 127.05L639.701 128.843C639.477 127.916 639.223 127.005 638.984 126.079L641.972 117.802L637.49 121.104C635.099 113.634 632.052 107.075 628.242 103.938C628.242 103.938 665.921 115.979 644.676 156.601C644.676 156.601 643.989 150.177 642.48 141.736L645.408 137.448Z" fill="#E0E0E0"/>
<path d="M608.357 104.206L602.381 92.8521L604.861 104.685C604.263 104.774 603.651 104.894 603.038 105.013L595.225 95.2873L597.152 106.477C594.482 107.286 591.863 108.254 589.308 109.376C586.524 110.624 583.806 112.015 581.166 113.544L577.356 103.609L579.134 114.724C576.55 116.218 574.025 117.906 571.664 119.61L569.782 110.855L569.961 120.82C566.973 122.971 564.194 125.152 561.624 127.289L561.863 111.423L559.548 129.037C556.918 131.278 554.543 133.429 552.526 135.341L552.242 124.331L549.448 138.315C546.55 141.198 544.892 143.036 544.892 143.036C546.386 104.505 561.326 89.2516 586.036 85.0684C610.747 80.8852 628.556 106.597 628.556 106.597C628.556 106.597 620.877 102.952 608.357 104.206Z" fill="#E0E0E0"/>
<path d="M680.427 151.297L678.171 162.846C677.081 159.992 675.602 156.332 673.689 152.254L675.721 135.446L672.016 148.698C669.12 142.672 665.763 136.878 661.976 131.367L665.502 119.714L659.795 128.364C658.645 126.87 657.465 125.376 656.24 124.002L658.241 116.666L655.149 122.807C654.312 121.881 653.446 120.999 652.564 120.147L655 110.362L651.13 118.833C648.722 116.63 646.071 114.71 643.227 113.111L647.156 101.159L641.001 112.005C637.13 110.19 632.889 109.305 628.615 109.421C628.615 109.421 636.085 97.4686 649.815 93.3601C663.545 89.2516 693.141 114.112 680.293 168.956C680.293 168.956 679.904 167.716 679.128 165.58L680.427 151.297Z" fill="#E0E0E0"/>
<path d="M657.778 44.7304L660.124 51.6924C659.258 51.7414 658.398 51.8664 657.554 52.0659L654.731 42.9973L656.613 52.29C654.822 52.8254 653.112 53.6046 651.533 54.6057L647.649 42.3699L649.89 55.7113C649.263 56.1744 648.635 56.6824 647.993 57.2053L643.6 45.7164L646.902 58.266C643.656 61.5158 640.884 65.2075 638.67 69.232L637.52 52.29L635.578 75.2827C632.357 82.4725 629.758 89.9249 627.809 97.5582C627.809 97.5582 625.418 36.3042 640.164 29.4318C654.91 22.5594 663.68 51.9763 663.68 51.9763C663.024 51.7831 662.346 51.6727 661.663 51.6476L657.778 44.7304Z" fill="#E0E0E0"/>
<path d="M636.713 112.872L635.398 124.48L630.916 113.29L624.94 122.045L622.58 113.888L615.677 119.684C615.677 119.684 616.529 104.879 620.936 98.111C625.344 91.3432 638.58 96.0941 636.713 112.872Z" fill="#E0E0E0"/>
<path d="M452.682 299.532V218.587C452.682 218.587 436.248 236.052 425.387 233.662C414.525 231.271 400.392 239.533 400.392 239.533C400.392 239.533 414.63 237.456 419.919 243.238C425.207 249.02 448.813 249.632 448.813 249.632V302.49L452.682 299.532Z" fill="#EBEBEB"/>
<path d="M525.141 274.717H521.406V279.811H509.095V274.717H496.994V279.811H484.683V274.717H472.597V279.811H460.271V274.717H448.185V279.811H435.874V274.717H423.773V279.811H411.463V274.717H399.361V279.811H387.051V274.717H382.912L370.915 370.631L537.541 369.944L525.141 274.717Z" fill="#E0E0E0"/>
<path d="M551.645 344.337H546.52V351.329H529.608V344.337H512.995V351.329H496.068V344.337H479.455V351.329H462.542V344.337H445.929V351.329H429.002V344.337H412.389V351.329H395.462V344.337H378.849V351.329H361.936V344.337H356.244L339.751 476.123L568.706 475.167L551.645 344.337Z" fill="#EBEBEB"/>
<path d="M636.22 460.6C632.679 456.611 629.347 452.533 625.642 448.648C625.45 448.454 625.275 448.244 625.119 448.021C623.9 447.232 622.627 446.528 621.31 445.914C621.071 445.839 620.294 445.526 619.502 445.227C618.008 444.689 616.514 444.106 615.02 443.509C605.742 439.774 597.406 435.441 590.399 428.076C586.559 424.042 583.497 419.336 579.523 415.422C579.418 415.556 578.641 415.138 578.268 414.839L575.28 414.451C573.681 414.451 572.068 414.451 570.469 414.555C568.183 414.66 565.897 414.839 563.611 415.048C554.647 428.076 543.442 445.869 538.482 448.215C530.788 451.86 459.883 470.625 454.654 469.475C449.425 468.324 422.055 470.58 415.183 470.326C408.31 470.072 395.865 467.024 377.833 458.733C359.8 450.441 349.97 450.396 328.262 443.479C306.554 436.562 292.002 433.932 279.303 444.57C266.604 455.207 231.719 432.752 220.843 429.555C209.967 426.358 189.17 407.937 174.977 416.527C160.784 425.118 148.982 429.211 131.248 444.57C113.514 459.928 78.3304 489.614 78.3304 489.614H677.424L670.537 477.587C663.973 477.187 657.556 475.479 651.662 472.561C645.768 469.644 640.518 465.577 636.22 460.6Z" fill="#F5F5F5"/>
<path d="M64.5109 313.74C64.5109 313.74 81.9459 282.366 129.186 255.295C129.186 255.295 167.642 252.023 211.057 270.952C211.057 270.952 219.857 285.563 209.847 291.33C199.837 297.097 191.546 285.503 191.546 285.503C191.546 285.503 189.693 303.162 176.606 303.67C163.518 304.178 159.724 291.33 159.724 291.33C159.724 291.33 158.439 307.54 142.856 311.633C129.38 315.234 121.014 303.67 121.014 303.67C121.014 303.67 118.325 316.997 106.208 320.836C96.4676 323.914 89.7745 315.533 89.7745 315.533C89.7745 315.533 86.9807 329.995 76.6422 329.995C67.7529 329.995 64.5109 313.74 64.5109 313.74Z" fill="#E0E0E0"/>
<path d="M373.5 556.605C533.481 556.605 663.172 549.033 663.172 539.693C663.172 530.352 533.481 522.78 373.5 522.78C213.519 522.78 83.8283 530.352 83.8283 539.693C83.8283 549.033 213.519 556.605 373.5 556.605Z" fill="#F5F5F5"/>
<path d="M573.696 465.994C573.696 465.994 580.195 456.477 586.111 453.817C592.027 451.158 592.984 441.044 596.196 440.491C599.408 439.938 602.949 449.261 608.566 451.98C614.183 454.699 622.684 465.934 622.684 465.934L573.696 465.994Z" fill="black"/>
<path opacity="0.8" d="M573.696 465.994C573.696 465.994 580.195 456.477 586.111 453.817C592.027 451.158 592.984 441.044 596.196 440.491C599.408 439.938 602.949 449.261 608.566 451.98C614.183 454.699 622.684 465.934 622.684 465.934L573.696 465.994Z" fill="white"/>
<path d="M620.936 534.508H573.666L567.69 465.934H626.912L620.936 534.508Z" fill="black"/>
<path d="M629.766 462.378H564.822V469.594H629.766V462.378Z" fill="black"/>
<path opacity="0.2" d="M629.766 462.378H564.822V469.594H629.766V462.378Z" fill="white"/>
<path d="M594.507 467.458C598.81 474.211 617.231 502.074 628.645 504.105L630.05 500.729C630.05 500.729 619.831 501.954 597.182 465.754C596.967 465.403 596.626 465.147 596.229 465.039C595.832 464.93 595.409 464.978 595.045 465.172C594.853 465.28 594.686 465.428 594.554 465.604C594.421 465.78 594.327 465.982 594.276 466.197C594.226 466.412 594.22 466.635 594.26 466.852C594.3 467.068 594.384 467.275 594.507 467.458Z" fill="#263238"/>
<path d="M527.248 445.825C527.733 445.671 528.244 445.617 528.751 445.664C529.258 445.712 529.75 445.86 530.199 446.101C530.647 446.342 531.043 446.67 531.362 447.067C531.681 447.463 531.918 447.92 532.058 448.409L540.126 476.631L550.584 472.433C550.584 472.433 556.903 495.963 544.966 499.683C533.358 503.314 524.394 481.591 524.394 481.591L535.061 478.603L524.872 450.725C524.701 450.247 524.626 449.741 524.653 449.234C524.68 448.728 524.808 448.232 525.029 447.775C525.251 447.319 525.561 446.911 525.942 446.576C526.323 446.241 526.767 445.986 527.248 445.825Z" fill="black"/>
<path opacity="0.4" d="M545.011 499.683C533.358 503.314 524.394 481.591 524.394 481.591L535.061 478.603C535.061 478.603 536.899 481.74 538.96 480.963C541.022 480.187 540.186 476.586 540.186 476.586L550.644 472.388C550.644 472.388 556.948 496.008 545.011 499.683Z" fill="white"/>
<path d="M634.457 540.305C628.586 537.392 622.58 534.643 620.652 534.508C616.529 534.239 614.153 532.402 611.21 528.891C608.267 525.38 607.072 521.316 601.753 515.669C596.435 510.022 602.336 507.751 591.101 506.302C579.866 504.852 584.214 505.764 577.311 500.789C570.409 495.814 571.814 495.829 563.731 492.273C555.648 488.717 560.37 487.373 550.912 486.581C544.384 486.028 534.06 489.464 528.697 493.289C526.321 494.977 525.111 497.771 522.721 499.265C520.076 500.953 515.968 497.771 516.401 503.463C516.689 504.914 516.754 506.4 516.595 507.87C515.833 511.067 502.671 511.053 499.325 512.054C498.527 512.196 497.813 512.633 497.323 513.279C496.561 514.638 497.711 517.043 496.232 517.537C495.769 517.701 495.246 517.536 494.738 517.611C492.96 517.955 493.423 521.152 491.75 521.884C490.077 522.616 488.15 521.122 486.297 521.884C484.878 522.422 484.4 524.334 483.16 525.096C480.993 526.411 478.752 527.382 476.616 528.786C472.911 531.207 469.699 534.18 465.725 536.256L455.087 539.155L451.905 540.275L634.457 540.305Z" fill="black"/>
<path opacity="0.8" d="M634.457 540.305C628.586 537.392 622.58 534.643 620.652 534.508C616.529 534.239 614.153 532.402 611.21 528.891C608.267 525.38 607.072 521.316 601.753 515.669C596.435 510.022 602.336 507.751 591.101 506.302C579.866 504.852 584.214 505.764 577.311 500.789C570.409 495.814 571.814 495.829 563.731 492.273C555.648 488.717 560.37 487.373 550.912 486.581C544.384 486.028 534.06 489.464 528.697 493.289C526.321 494.977 525.111 497.771 522.721 499.265C520.076 500.953 515.968 497.771 516.401 503.463C516.689 504.914 516.754 506.4 516.595 507.87C515.833 511.067 502.671 511.053 499.325 512.054C498.527 512.196 497.813 512.633 497.323 513.279C496.561 514.638 497.711 517.043 496.232 517.537C495.769 517.701 495.246 517.536 494.738 517.611C492.96 517.955 493.423 521.152 491.75 521.884C490.077 522.616 488.15 521.122 486.297 521.884C484.878 522.422 484.4 524.334 483.16 525.096C480.993 526.411 478.752 527.382 476.616 528.786C472.911 531.207 469.699 534.18 465.725 536.256L455.087 539.155L451.905 540.275L634.457 540.305Z" fill="white"/>
<path d="M509.081 513.114C509.088 513.224 509.088 513.334 509.081 513.443C509.037 518.503 507.566 523.449 504.838 527.711C504.613 528.054 504.389 528.398 504.135 528.742C502.567 530.969 500.674 532.948 498.518 534.613C498.039 535.002 497.541 535.366 497.024 535.704C496.906 535.794 496.781 535.874 496.65 535.943L496.157 536.256C495.902 536.43 495.638 536.589 495.366 536.734C494.947 536.973 494.514 537.213 494.081 537.422C488.879 540.041 482.972 540.914 477.235 539.913C471.498 538.912 466.236 536.09 462.229 531.864C460.401 529.976 458.865 527.826 457.672 525.485C455.703 521.653 454.679 517.407 454.684 513.099V513.01C454.684 512.248 454.684 511.516 454.789 510.739C455.08 507.235 456.06 503.824 457.672 500.699C458.069 499.914 458.508 499.151 458.987 498.413C460.552 495.986 462.488 493.818 464.724 491.989C465.433 491.408 466.177 490.869 466.95 490.376C467.219 490.182 467.499 490.003 467.786 489.838C469.925 488.522 472.238 487.516 474.659 486.85L475.286 486.685C477.446 486.149 479.664 485.878 481.89 485.879C482.587 485.879 483.274 485.909 483.951 485.968H484.474C487.495 486.255 490.446 487.053 493.199 488.329L493.543 488.493C497.632 490.429 501.173 493.356 503.842 497.009C506.512 500.662 508.225 504.925 508.827 509.409C509.001 510.636 509.086 511.875 509.081 513.114Z" fill="black"/>
<path opacity="0.6" d="M509.08 513.114C509.085 518.169 507.678 523.124 505.017 527.422C502.356 531.719 498.548 535.188 494.021 537.437C493.4 536.935 492.891 536.309 492.527 535.599C497.547 520.958 492.527 513.114 492.527 513.114V512.965L492.886 510.619V510.186C493.662 505.838 495.62 497.696 499.863 492.766C502.755 495.31 505.072 498.44 506.662 501.948C508.251 505.456 509.075 509.263 509.08 513.114Z" fill="white"/>
<path opacity="0.6" d="M461.033 508.408C461.033 508.408 456.268 513.174 457.672 525.5C454.832 519.954 453.982 513.6 455.266 507.503C456.549 501.406 459.888 495.934 464.724 492.004C462.087 497.058 460.815 502.712 461.033 508.408Z" fill="white"/>
<path opacity="0.2" d="M499.937 492.766C493.961 499.698 492.467 513.114 492.467 513.114C476.033 517.133 460.989 508.408 460.989 508.408C460.77 502.703 462.042 497.039 464.679 491.974C469.684 487.902 475.975 485.743 482.426 485.883C488.877 486.022 495.068 488.452 499.892 492.736L499.937 492.766Z" fill="white"/>
<path opacity="0.2" d="M494.006 537.437C488.811 540.036 482.919 540.897 477.198 539.894C471.477 538.891 466.229 536.076 462.229 531.864C467.323 534.852 477.736 539.14 492.512 535.584C492.874 536.3 493.383 536.931 494.006 537.437Z" fill="white"/>
<g opacity="0.2">
<path d="M493.558 488.538C492.846 489.535 492.193 490.573 491.601 491.645C490.495 493.705 489.541 495.842 488.747 498.04C487.911 500.236 487.253 502.522 486.656 504.748C486.058 506.974 485.55 509.32 485.162 511.635C485.318 509.279 485.648 506.937 486.148 504.628C486.653 502.31 487.302 500.024 488.09 497.786C488.904 495.564 489.903 493.415 491.078 491.362C491.728 490.327 492.437 489.329 493.199 488.374L493.558 488.538Z" fill="black"/>
<path d="M484.474 486.028C484.101 486.7 483.757 487.388 483.429 488.075C482.331 490.392 481.427 492.795 480.724 495.261C479.933 497.711 479.335 500.221 478.767 502.731C478.2 505.241 477.721 507.781 477.273 510.32C477.425 507.734 477.735 505.16 478.2 502.611C478.647 500.058 479.245 497.534 479.992 495.052C480.737 492.552 481.713 490.126 482.906 487.806C483.234 487.193 483.578 486.581 483.937 485.998L484.474 486.028Z" fill="black"/>
<path d="M475.286 486.715L474.823 487.925C474 490.144 473.326 492.415 472.806 494.723C472.224 497.024 471.775 499.355 471.312 501.7C470.849 504.046 470.52 506.391 470.177 508.752C470.229 506.362 470.424 503.977 470.759 501.61C471.086 499.224 471.535 496.855 472.104 494.514C472.65 492.173 473.385 489.88 474.3 487.657C474.42 487.388 474.539 487.104 474.674 486.835L475.286 486.715Z" fill="black"/>
<path d="M467.786 489.853C467.278 491.526 466.8 493.199 466.457 494.902C466.113 496.606 465.71 498.727 465.411 500.654C465.112 502.582 464.903 504.524 464.724 506.481C464.622 504.518 464.662 502.551 464.843 500.595C465.032 498.633 465.327 496.683 465.725 494.753C466.058 493.279 466.467 491.823 466.95 490.391C467.219 490.197 467.499 490.018 467.786 489.853Z" fill="black"/>
<path d="M500.161 522.183C500.24 524.997 499.872 527.806 499.071 530.504C498.671 531.85 498.172 533.163 497.577 534.434C497.382 534.867 497.158 535.3 496.934 535.718C496.817 535.809 496.692 535.889 496.561 535.958C497.378 534.155 498.024 532.279 498.488 530.355C499.188 527.695 499.49 524.946 499.384 522.198C499.341 519.449 498.919 516.719 498.129 514.085C497.355 511.423 496.251 508.869 494.843 506.481C496.512 508.749 497.803 511.271 498.667 513.951C499.577 516.604 500.08 519.379 500.161 522.183Z" fill="black"/>
<path d="M505.525 521.406L505.45 523.662L505.136 525.903C505.069 526.511 504.965 527.115 504.823 527.711C504.598 528.054 504.374 528.398 504.12 528.742C504.343 527.783 504.493 526.809 504.569 525.828L504.793 523.617V521.406C504.845 520.665 504.845 519.921 504.793 519.18C504.718 518.448 504.718 517.686 504.584 516.984C504.243 514.044 503.504 511.164 502.387 508.423C501.309 505.652 499.829 503.055 497.995 500.714C500.062 502.894 501.727 505.423 502.91 508.184C504.132 510.951 504.947 513.879 505.331 516.879C505.45 517.626 505.435 518.373 505.495 519.135C505.558 519.89 505.568 520.649 505.525 521.406Z" fill="black"/>
<path d="M509.08 513.114C509.088 513.224 509.088 513.334 509.08 513.443L508.991 512.935C508.356 509.839 507.352 506.829 506.003 503.971C504.68 501.077 502.938 498.394 500.834 496.008C503.158 498.23 505.079 500.838 506.511 503.717C507.461 505.584 508.25 507.528 508.871 509.529C509.026 510.717 509.095 511.916 509.08 513.114Z" fill="black"/>
<path d="M459.704 504.105C458.504 505.469 457.475 506.974 456.641 508.587C455.865 510.024 455.21 511.523 454.684 513.069C454.684 512.308 454.684 511.575 454.789 510.799C455.188 509.934 455.642 509.096 456.148 508.289C457.08 506.697 458.283 505.281 459.704 504.105Z" fill="black"/>
<path d="M460.989 496.874C459.853 498.159 458.748 499.429 457.672 500.714C458.069 499.929 458.508 499.166 458.987 498.428C459.624 497.873 460.293 497.354 460.989 496.874Z" fill="black"/>
<path d="M460.989 514.175C463.469 515.131 465.979 515.968 468.459 516.715C470.993 517.466 473.567 518.08 476.168 518.552C481.345 519.669 486.707 519.602 491.855 518.358C489.349 519.297 486.702 519.803 484.026 519.852C481.348 519.905 478.671 519.694 476.033 519.225C473.409 518.729 470.823 518.05 468.294 517.193C465.786 516.373 463.344 515.364 460.989 514.175Z" fill="black"/>
<path d="M460.989 520.674C463.485 521.665 466.04 522.503 468.638 523.184C471.229 523.867 473.865 524.366 476.526 524.678C479.179 525.041 481.859 525.166 484.534 525.051L486.536 524.962L488.538 524.723C489.883 524.633 491.167 524.245 492.512 524.05C489.937 524.9 487.268 525.431 484.564 525.634C481.854 525.826 479.133 525.756 476.437 525.425C473.746 525.069 471.089 524.499 468.488 523.722C465.896 522.949 463.385 521.929 460.989 520.674Z" fill="black"/>
<path d="M461.646 526.291C463.997 527.386 466.429 528.295 468.922 529.01C471.405 529.721 473.944 530.221 476.511 530.504C477.796 530.714 479.081 530.743 480.366 530.833C481.651 530.923 482.95 530.833 484.25 530.758C486.837 530.613 489.406 530.243 491.929 529.653C489.462 530.521 486.899 531.088 484.295 531.341C481.675 531.603 479.035 531.572 476.422 531.251C473.816 530.93 471.248 530.349 468.757 529.518C466.271 528.719 463.885 527.636 461.646 526.291Z" fill="black"/>
<path d="M462.767 530.519C464.984 531.544 467.276 532.398 469.624 533.074C471.958 533.772 474.347 534.272 476.765 534.568C479.178 534.926 481.623 535.022 484.056 534.852L485.879 534.718L487.671 534.419C488.897 534.299 490.047 533.881 491.257 533.642C488.966 534.567 486.558 535.17 484.101 535.435C481.62 535.731 479.112 535.731 476.631 535.435C474.177 535.122 471.759 534.566 469.415 533.776C467.08 532.952 464.849 531.859 462.767 530.519Z" fill="black"/>
</g>
<path d="M170.002 470.371C170.002 470.371 175.321 462.378 184.778 461.795C194.235 461.213 202.213 473.269 202.213 473.269H199.225C199.225 473.269 191.591 465.037 186.123 465.037C180.654 465.037 175.336 471.835 175.336 471.835L170.002 470.371Z" fill="#263238"/>
<path d="M89.7596 533.448C93.0314 527.995 129.679 531.535 137.956 528.278L142.438 535.972C142.438 535.972 136.118 539.468 125.63 538.228C115.143 536.988 99.2913 536.66 95.1529 540.305L89.7596 533.448Z" fill="#263238"/>
<path opacity="0.3" d="M89.7596 533.448C93.0314 527.995 129.679 531.535 137.956 528.278L142.438 535.972C142.438 535.972 136.118 539.468 125.63 538.228C115.143 536.988 99.2913 536.66 95.1529 540.305L89.7596 533.448Z" fill="black"/>
<path d="M244.12 516.819C243.821 518.119 243.492 519.389 243.119 520.629C240.131 530.803 235.529 539.035 232.183 540.305H137.179C135.873 540.305 134.584 540.006 133.411 539.432C132.237 538.857 131.212 538.021 130.411 536.988L130.337 536.884C129.986 536.422 129.69 535.92 129.455 535.39C122.896 521.69 116.278 494.29 125.586 481.8C126.559 480.498 127.683 479.314 128.932 478.274L129.201 478.065C131.172 476.457 133.354 475.125 135.685 474.106H135.76C142.304 471.118 150.341 469.788 158.17 469.206C160.456 469.026 162.652 468.922 164.953 468.877C170.779 468.713 176.217 468.877 180.55 468.982C195.819 469.37 207.83 473.912 216.017 473.12C219.024 472.806 222.063 473.049 224.981 473.837C225.822 474.073 226.65 474.352 227.462 474.674C231.187 476.249 234.653 478.38 237.74 480.993C247.093 488.418 247.227 503.642 244.12 516.819Z" fill="#263238"/>
<path opacity="0.1" d="M244.12 516.819C243.821 518.119 243.492 519.389 243.119 520.629C240.131 530.803 235.529 539.035 232.183 540.305H137.179C135.873 540.305 134.584 540.006 133.411 539.432C132.237 538.857 131.212 538.021 130.411 536.988L130.337 536.884C129.986 536.422 129.69 535.92 129.455 535.39C122.896 521.69 116.278 494.29 125.586 481.8C126.559 480.498 127.683 479.314 128.932 478.274L129.201 478.065C131.172 476.457 133.354 475.125 135.685 474.106H135.76C142.304 471.118 150.341 469.788 158.17 469.206C160.456 469.026 162.652 468.922 164.953 468.877C170.779 468.713 176.217 468.877 180.55 468.982C195.819 469.37 207.83 473.912 216.017 473.12C219.024 472.806 222.063 473.049 224.981 473.837C225.822 474.073 226.65 474.352 227.462 474.674C231.187 476.249 234.653 478.38 237.74 480.993C247.093 488.418 247.227 503.642 244.12 516.819Z" fill="white"/>
<path opacity="0.2" d="M229.568 515.878C222.77 515.878 209.175 519.12 189.081 514.698C179.712 512.472 169.96 512.4 160.56 514.489C160.336 511.501 160.097 508.169 159.828 504.554C158.05 480.276 144.201 470.087 135.76 474.121H135.685C133.395 475.217 131.222 476.543 129.201 478.08L128.932 478.289C127.683 479.329 126.559 480.513 125.586 481.815C116.278 494.305 122.896 521.705 129.455 535.405C129.69 535.935 129.986 536.437 130.337 536.899L130.411 537.003C131.219 537.919 132.212 538.652 133.325 539.155C134.438 539.657 135.644 539.917 136.865 539.917H153.882C160.829 539.917 161.651 533.552 160.874 519.882C162.054 519.21 163.503 518.388 165.117 517.283C169.345 514.534 185.794 515.893 192.89 518.552C199.987 521.212 218.602 522.392 227.611 520.928C232.736 520.167 237.939 520.072 243.089 520.644C243.462 519.404 243.791 518.134 244.09 516.834C241.012 516.491 234.558 515.878 229.568 515.878Z" fill="black"/>
<path opacity="0.2" d="M167.806 481.591C171.944 496.665 174.783 501.984 175.874 503.463C176.964 504.942 207.053 508.513 212.701 508.498C219.219 508.441 225.719 507.801 232.123 506.585C235.962 505.614 237.202 486.282 227.521 474.689C226.71 474.367 225.882 474.088 225.041 473.852C230.315 485.684 230.435 500.176 229.807 502.238C228.911 505.106 220.051 504.688 215.913 504.598C211.775 504.509 186.033 502.91 183.403 501.864C180.865 500.81 178.703 499.014 177.203 496.71C175.127 494.051 174.843 484.893 171.093 476.989C169.501 473.987 167.427 471.266 164.953 468.937C162.727 468.937 160.471 469.086 158.17 469.265C160.532 470.553 162.606 472.311 164.264 474.431C165.921 476.551 167.126 478.987 167.806 481.591Z" fill="black"/>
<path d="M137.956 495.47L129.679 497.502C129.679 497.502 123.808 514.354 127.319 521.406C130.83 528.458 103.415 538.273 89.7596 533.358L95.1081 540.215C95.1081 540.215 127.618 538.169 133.818 525.798C140.018 513.428 131.158 511.516 130.576 508.035C129.993 504.554 137.956 495.47 137.956 495.47Z" fill="#263238"/>
<path opacity="0.1" d="M137.956 495.47L129.679 497.502C129.679 497.502 123.808 514.354 127.319 521.406C130.83 528.458 103.415 538.273 89.7596 533.358L95.1081 540.215C95.1081 540.215 127.618 538.169 133.818 525.798C140.018 513.428 131.158 511.516 130.576 508.035C129.993 504.554 137.956 495.47 137.956 495.47Z" fill="white"/>
<path d="M211.057 147.906C211.057 147.906 179.086 129.978 172.467 125.376C165.849 120.775 130.441 86.0096 128.469 85.0385C128.469 85.0385 129.784 81.0644 126.811 78.7487C123.838 76.433 112.244 68.8286 110.601 68.8286C108.957 68.8286 104.625 85.0385 105.297 89.0125C105.969 92.9865 122.179 93.9726 122.179 93.9726C122.179 93.9726 155.929 133.265 161.218 138.793C166.506 144.32 202.571 167.791 202.571 167.791L211.057 147.906Z" fill="#E4897B"/>
<path d="M224.175 151.208C224.175 151.208 231.182 165.356 214.165 187.826L176.651 160.246L191.591 133.13L224.175 151.208Z" fill="black"/>
<path opacity="0.6" d="M214.165 187.826L196.446 174.798L194.13 173.095L184.135 165.834L176.665 160.321L182.178 150.356L185.256 144.619L191.605 133.13L197.731 136.537L203.02 139.525L224.145 151.267C224.838 152.907 225.267 154.647 225.415 156.422C226.117 162.383 225.101 173.379 214.165 187.826Z" fill="white"/>
<path opacity="0.2" d="M214.165 187.826L196.446 174.798C202.527 162.218 218.258 157.781 225.445 156.362C226.117 162.383 225.101 173.379 214.165 187.826Z" fill="black"/>
<g opacity="0.2">
<path d="M203.05 139.465L197.761 142.543V136.537L203.05 139.465Z" fill="white"/>
<path d="M191.546 146.472L184.912 155.779L182.163 150.281L185.286 144.619L191.546 146.472Z" fill="white"/>
<path d="M196.446 160.47L194.13 173.095L184.135 165.759L196.446 160.47Z" fill="white"/>
<path d="M201.033 153.269L204.723 162.726L212.387 152.298L201.033 153.269Z" fill="white"/>
</g>
<path d="M293.9 144.515C293.9 144.515 325.871 126.587 332.49 121.985C339.108 117.384 374.516 82.6182 376.503 81.6471C376.503 81.6471 375.173 77.673 378.146 75.3573C381.119 73.0416 392.713 65.4372 394.356 65.4372C396 65.4372 400.332 81.6471 399.66 85.6211C398.988 89.5951 382.778 90.5812 382.778 90.5812C382.778 90.5812 349.028 129.888 343.74 135.401C338.451 140.914 302.386 164.34 302.386 164.34L293.9 144.515Z" fill="#E4897B"/>
<path d="M255.698 333.834C255.698 333.834 255.011 345.114 253.98 360.203C253.293 369.586 252.486 380.417 251.515 390.89C250.26 404.964 248.841 418.38 247.421 426.746C246.122 434.41 228.866 529.593 228.866 529.593H217.302C220.948 440.835 226.595 406.413 226.804 401.244C226.804 399.555 226.939 397.21 227.013 394.416C227.237 384.287 227.432 368.286 227.551 356.648C227.641 348.251 227.686 342.141 227.686 342.141L255.698 333.834Z" fill="#E4897B"/>
<path d="M300.294 405.651C299.891 413.405 295.274 529.175 295.274 529.175H282.56C276.061 436.965 278.526 404.949 277.361 398.554C275.374 387.678 273.507 373.38 272.222 362.698C271.191 354.168 270.548 348.027 270.548 348.027L296.469 336.822C296.469 336.822 298.038 350.268 299.218 366.374C299.801 374.441 300.309 383.211 300.458 391.368C300.578 396.478 300.548 401.348 300.294 405.651Z" fill="#E4897B"/>
<path opacity="0.2" d="M227.491 356.618L253.98 360.203C253.293 369.586 252.486 380.417 251.515 390.89L226.954 394.416C227.178 384.257 227.372 368.256 227.491 356.618Z" fill="black"/>
<path opacity="0.2" d="M300.473 391.428L277.376 398.539C275.389 387.663 273.522 373.366 272.237 362.683L299.233 366.359C299.816 374.441 300.294 383.211 300.473 391.428Z" fill="black"/>
<path d="M231.57 526.007H216.286C216.036 526.011 215.794 526.098 215.599 526.255C215.404 526.412 215.267 526.63 215.211 526.874L212.746 538.049C212.644 538.529 212.736 539.029 213.002 539.44C213.268 539.852 213.686 540.141 214.165 540.245C214.304 540.26 214.444 540.26 214.583 540.245C219.513 540.171 223.114 539.857 229.299 539.857C233.124 539.857 244.643 540.26 249.901 540.26C255.16 540.26 255.877 535.061 253.711 534.568C244.03 532.462 236.739 529.548 233.647 526.769C233.077 526.259 232.334 525.986 231.57 526.007Z" fill="black"/>
<path d="M296.23 525.619H280.977C280.727 525.616 280.484 525.699 280.288 525.854C280.092 526.009 279.956 526.227 279.901 526.471L277.421 537.661C277.373 537.903 277.374 538.153 277.424 538.395C277.473 538.637 277.57 538.866 277.709 539.071C277.848 539.275 278.026 539.45 278.233 539.585C278.44 539.72 278.672 539.812 278.915 539.857H279.318C284.263 539.782 287.849 539.483 294.049 539.483C297.859 539.483 309.378 539.872 314.651 539.872C319.925 539.872 320.627 534.673 318.446 534.195C308.765 532.088 301.489 529.16 298.397 526.381C298.104 526.117 297.761 525.914 297.39 525.784C297.018 525.653 296.624 525.597 296.23 525.619Z" fill="black"/>
<path d="M256.744 384.361C256.863 383.345 256.983 382.285 257.102 381.089C258.596 365.791 260.225 347.43 261.584 329.741C266.739 343.605 268.965 363.102 271.654 384.361H303.028C300.428 329.337 293.616 284.577 290 265.484H223.458C223.368 272.326 222.606 338.69 220.888 384.361H256.744Z" fill="#263238"/>
<path opacity="0.2" d="M256.744 384.361C256.863 383.345 256.983 382.285 257.102 381.089C258.596 365.791 260.225 347.43 261.584 329.741C266.739 343.605 268.965 363.102 271.654 384.361H303.028C300.428 329.337 293.616 284.577 290 265.484H223.458C223.368 272.326 222.606 338.69 220.888 384.361H256.744Z" fill="white"/>
<path d="M265.932 129.216C265.786 129.818 265.607 130.412 265.394 130.994C264.204 134.316 262.038 137.201 259.179 139.271C258.46 139.798 257.701 140.268 256.908 140.675C253.879 142.296 250.402 142.881 247.009 142.341C243.615 141.802 240.491 140.167 238.114 137.687C231.824 131.338 231.988 124.002 231.271 111.587C231.082 108.919 231.516 106.244 232.541 103.773C233.398 101.711 234.653 99.8376 236.234 98.2604C237.815 96.6833 239.692 95.433 241.756 94.5812C243.821 93.7293 246.033 93.2925 248.266 93.2958C250.499 93.299 252.71 93.7422 254.772 94.6C266.903 99.5601 268.576 118.026 265.932 129.216Z" fill="#E4897B"/>
<path opacity="0.2" d="M259.134 139.271C258.416 139.798 257.656 140.268 256.863 140.675C254.783 141.784 252.481 142.414 250.126 142.517C247.771 142.62 245.422 142.195 243.253 141.273C243.815 139.78 244.563 138.365 245.479 137.06C250.149 136.474 254.888 137.241 259.134 139.271Z" fill="black"/>
<path d="M234.14 155.376C240.265 160.934 255.25 158.887 255.25 158.887C255.25 158.887 264.602 156.317 262.63 153.404C257.132 152.493 254.458 149.923 253.353 146.621C252.756 144.581 252.568 142.444 252.8 140.331C252.888 139.153 253.043 137.981 253.263 136.82L234.737 123.106C237.158 132.159 240.131 148.817 234.14 155.376Z" fill="#E4897B"/>
<path d="M259.134 117.921L261.809 118.922L260.479 113.454C260.479 113.454 264.393 107.478 260.479 102.294C260.479 102.294 271.295 99.0074 265.185 93.3302C262.914 91.2087 260.09 93.3302 252.62 90.0882C248.572 88.3103 235.903 88.1759 235.275 93.3302C235.275 93.3302 226.147 93.3302 225.161 108.868C224.872 113.42 225.589 117.98 227.259 122.225C228.93 126.469 231.513 130.294 234.827 133.429C234.827 133.429 245.853 136.029 251.261 131.606C256.669 127.184 259.134 117.921 259.134 117.921Z" fill="#263238"/>
<path d="M252.083 118.803C252.316 119.971 252.807 121.072 253.52 122.026C254.234 122.98 255.151 123.762 256.206 124.316C258.731 125.391 260.404 121.836 260.031 118.101C259.687 114.784 257.969 110.123 255.265 110.75C252.561 111.378 251.201 115.456 252.083 118.803Z" fill="#E4897B"/>
<path opacity="0.2" d="M261.644 329.666C260.225 347.355 258.656 365.761 257.162 381.06C254.891 358.963 252.113 343.217 252.113 343.217C252.113 343.217 249.513 341.08 242.357 329.666C235.2 318.252 242.357 296.918 242.357 296.918C242.028 316.728 261.644 329.666 261.644 329.666Z" fill="black"/>
<path d="M305.344 381.777L303.969 386.961H270.563V382.165L305.344 381.777Z" fill="black"/>
<path d="M258.357 382.494L257.356 387.29H219.528L217.243 382.494H258.357Z" fill="black"/>
<path d="M263.019 151.775C263.019 151.775 257.581 143.185 243.881 142.572C230.181 141.96 229.135 151.387 229.135 151.387L263.019 151.775Z" fill="black"/>
<path opacity="0.5" d="M263.019 151.775C263.019 151.775 257.581 143.185 243.881 142.572C230.181 141.96 229.135 151.387 229.135 151.387L263.019 151.775Z" fill="white"/>
<path d="M213.821 146.412C217.954 192.924 217.453 239.732 212.327 286.146L292.6 281.245C291.704 199.329 280.723 147.727 280.723 147.727C280.723 147.727 260.031 152.074 243.193 151.447C233.233 150.984 223.367 149.293 213.821 146.412Z" fill="black"/>
<path d="M280.782 147.786C280.782 147.786 291.509 172.856 292.66 198.224C293.81 223.592 249.095 258.462 249.095 258.462C249.095 258.462 214.628 234.737 188.035 236.889C161.442 239.04 153.165 248.497 153.165 248.497C153.165 248.497 173.842 204.26 209.847 188.842C209.847 188.842 202.377 163.369 213.821 146.531C213.821 146.412 238.711 154.569 280.782 147.786Z" fill="black"/>
<path opacity="0.6" d="M292.66 198.224C292.697 198.941 292.697 199.659 292.66 200.375C292.598 201.484 292.463 202.587 292.256 203.677C291.769 206.243 291.003 208.748 289.97 211.147C286.778 218.169 282.613 224.707 277.6 230.569C275.06 233.677 272.371 236.665 269.712 239.443C263.271 246.235 256.383 252.589 249.095 258.462C240.043 252.47 230.419 247.391 220.365 243.298C217.302 242.073 214.12 240.922 210.878 239.951C203.515 237.568 195.778 236.555 188.05 236.963C180.673 237.454 173.389 238.88 166.372 241.206C165.162 241.625 164.041 242.073 163.01 242.506L162.084 242.909C159.839 243.883 157.697 245.079 155.69 246.48C155.466 246.63 155.256 246.794 155.062 246.943C154.868 247.093 154.36 247.481 154.091 247.72L153.733 248.034C153.641 248.106 153.556 248.186 153.479 248.273L153.299 248.452L153.195 248.557C153.195 248.482 153.374 248.168 153.643 247.63L154.061 246.809C154.48 245.972 155.062 244.852 155.824 243.492L156.153 242.895L156.736 241.864C156.93 241.505 157.139 241.132 157.363 240.758C158.23 239.264 159.245 237.531 160.351 235.693C166.492 225.756 173.762 216.562 182.014 208.293C184.956 205.368 188.069 202.619 191.337 200.062C196.984 195.567 203.191 191.826 209.802 188.931C208.089 182.37 207.309 175.601 207.487 168.822C207.53 166.687 207.705 164.556 208.01 162.443C208.695 156.725 210.683 151.24 213.821 146.412C217.493 147.479 221.238 148.273 225.026 148.787C229.977 149.543 234.964 150.041 239.966 150.281C250.028 150.732 260.11 150.377 270.115 149.221C273.522 148.852 277.062 148.354 280.738 147.727L281.081 148.563C283.459 154.528 285.508 160.617 287.221 166.805C287.879 169.181 288.536 171.72 289.164 174.38C289.791 177.039 290.269 179.414 290.747 182.059C291.735 187.4 292.374 192.8 292.66 198.224Z" fill="white"/>
<g opacity="0.2">
<path d="M282.366 218.587L277.645 230.659C275.105 233.766 272.416 236.754 269.757 239.533L260.15 221.605L282.366 218.587Z" fill="white"/>
<path d="M201.033 207.053L182.059 208.144C185.001 205.218 188.114 202.47 191.381 199.912L201.033 207.053Z" fill="white"/>
<path d="M222.92 159.26L220.888 178.981L207.442 168.807C207.486 166.672 207.66 164.541 207.965 162.428L222.92 159.26Z" fill="white"/>
<path d="M229.135 211.222L222.92 192.278L241.819 188.782L229.135 211.222Z" fill="white"/>
<path d="M261.644 193.174V207.352L275.21 202.482L261.644 193.174Z" fill="white"/>
<path d="M226.744 234.244L220.365 243.208C217.302 241.983 214.12 240.833 210.878 239.862L206.067 228.896L226.744 234.244Z" fill="white"/>
<path d="M178.279 220.649L188.035 224.787L178.279 231.436V220.649Z" fill="white"/>
<path d="M166.357 241.072C156.646 244.463 153.165 248.437 153.165 248.437C155.333 244.016 157.742 239.717 160.381 235.559L166.357 241.072Z" fill="white"/>
<path d="M246.077 222.725L237.681 231.436L250.38 233.662L246.077 222.725Z" fill="white"/>
<path d="M246.077 168.045L255.952 181.342L263.019 166.282L246.077 168.045Z" fill="white"/>
<path d="M290.792 182.119L278.168 173.812L287.266 166.865C288.551 171.466 289.836 176.651 290.792 182.119Z" fill="white"/>
<path d="M292.645 200.375C292.372 204.113 291.463 207.776 289.956 211.207L284.667 198.194L292.645 200.375Z" fill="white"/>
<path d="M281.126 148.623L273.133 156.87L270.145 149.28C273.551 148.912 277.092 148.414 280.767 147.786L281.126 148.623Z" fill="white"/>
<path d="M240.011 150.296L234.14 162.726L225.026 148.847C229.993 149.589 234.995 150.073 240.011 150.296Z" fill="white"/>
</g>
<path opacity="0.2" d="M292.66 198.224C292.697 198.941 292.697 199.659 292.66 200.375C292.598 201.484 292.463 202.587 292.256 203.677C281.798 187.094 284.278 172.094 284.278 172.094L289.223 174.439C289.791 176.905 290.329 179.474 290.807 182.119C291.773 187.441 292.391 192.821 292.66 198.224Z" fill="black"/>
<path d="M250.29 81.7666C268.024 75.6561 272.476 99.2762 254.861 115.247C237.247 131.218 217.018 133.175 214.718 125.078C212.417 116.98 223.219 91.1339 250.29 81.7666Z" fill="black"/>
<path d="M232.526 80.5714C241.625 80.5714 254.548 89.8342 254.548 89.8342C254.548 89.8342 256.4 99.6946 247.332 108.36C238.263 117.025 230.076 118.399 225.026 115.038C219.977 111.676 218.572 98.604 218.572 98.604C219.033 97.0577 219.86 95.6457 220.984 94.4881C222.107 93.3305 223.494 92.4617 225.026 91.9557C225.026 91.9557 226.52 80.676 232.526 80.5714Z" fill="black"/>
<path opacity="0.2" d="M247.332 108.36C238.263 117.025 230.106 118.399 225.026 115.053C224.141 114.431 223.389 113.639 222.815 112.722C219.528 107.777 218.572 98.6488 218.572 98.6488C227.237 109.107 237.277 98.3052 238.667 91.0144C239.078 89.2827 239.083 87.4793 238.681 85.7454C238.279 84.0114 237.482 82.3939 236.351 81.0196C242.327 82.3044 248.871 86.1291 252.247 88.2954C253.741 89.2067 254.548 89.7894 254.548 89.7894C254.548 89.7894 256.4 99.6946 247.332 108.36Z" fill="black"/>
<path opacity="0.6" d="M247.332 108.36C238.263 117.025 230.106 118.399 225.026 115.053C224.141 114.431 223.389 113.639 222.815 112.722C231.899 115.426 242.715 110.929 248.527 102.847C251.608 98.663 252.942 93.4448 252.247 88.2953C253.741 89.2067 254.548 89.7893 254.548 89.7893C254.548 89.7893 256.4 99.6946 247.332 108.36Z" fill="white"/>
<path d="M280.782 147.786C280.782 147.786 273.776 161.95 290.792 184.404L328.307 156.87L313.367 129.754L280.782 147.786Z" fill="black"/>
<path opacity="0.6" d="M328.307 156.87L318.521 164.056L304.044 174.708L290.792 184.449C289.926 183.314 289.134 182.193 288.387 181.103C286.87 178.88 285.492 176.565 284.263 174.171C281.233 168.609 279.559 162.41 279.378 156.078C279.277 153.239 279.786 150.412 280.872 147.786L289.209 143.155L303.566 135.192L309.871 131.681L313.426 129.709L328.307 156.87Z" fill="white"/>
<g opacity="0.2">
<path d="M318.521 164.011L304.044 174.663L297.665 160.47L318.521 164.011Z" fill="white"/>
<path d="M317.176 141.183L303.82 146.472L303.476 135.192L309.781 131.681L317.176 141.183Z" fill="white"/>
<path d="M293.9 152.298L279.378 156.078C279.277 153.239 279.786 150.412 280.872 147.786L289.209 143.155L293.9 152.298Z" fill="white"/>
<path d="M290.792 170.421L288.342 181.058C286.825 178.835 285.448 176.52 284.219 174.126L290.792 170.421Z" fill="white"/>
</g>
<path d="M383.121 402.797L360.054 400.975L367.673 303.7L390.815 305.508L383.121 402.797ZM364.79 396.821L378.998 397.927L385.915 309.587L371.722 308.481L364.79 396.821Z" fill="#263238"/>
<path d="M367.18 528.189L370.168 528.428C371 528.416 371.825 528.578 372.591 528.903C373.357 529.228 374.046 529.709 374.615 530.316C375.184 530.923 375.62 531.642 375.895 532.428C376.17 533.213 376.278 534.047 376.212 534.876C376.146 535.705 375.908 536.511 375.513 537.243C375.117 537.975 374.573 538.617 373.916 539.126C373.258 539.636 372.502 540.003 371.694 540.203C370.887 540.404 370.047 540.433 369.227 540.29L366.239 540.051C365.407 540.065 364.581 539.905 363.814 539.581C363.047 539.257 362.356 538.777 361.786 538.17C361.216 537.564 360.778 536.845 360.502 536.06C360.226 535.275 360.116 534.441 360.181 533.611C360.246 532.781 360.483 531.974 360.878 531.241C361.273 530.508 361.817 529.866 362.474 529.355C363.132 528.845 363.889 528.478 364.697 528.277C365.505 528.076 366.345 528.046 367.165 528.189H367.18Z" fill="#263238"/>
<path opacity="0.1" d="M360.681 533.537C360.585 534.734 360.845 535.932 361.43 536.981C362.014 538.03 362.897 538.881 363.966 539.428C365.035 539.974 366.242 540.191 367.435 540.051C368.627 539.911 369.751 539.421 370.664 538.641C371.578 537.862 372.239 536.829 372.565 535.674C372.891 534.518 372.867 533.292 372.495 532.15C372.124 531.009 371.422 530.003 370.478 529.26C369.535 528.518 368.392 528.072 367.195 527.98C366.401 527.906 365.599 527.992 364.838 528.234C364.078 528.475 363.373 528.866 362.766 529.384C362.159 529.902 361.661 530.536 361.303 531.25C360.945 531.963 360.734 532.741 360.681 533.537Z" fill="white"/>
<path d="M350.866 526.919L353.854 527.143C354.686 527.129 355.512 527.289 356.279 527.613C357.046 527.937 357.737 528.417 358.307 529.024C358.877 529.63 359.315 530.349 359.591 531.134C359.867 531.919 359.977 532.753 359.912 533.583C359.847 534.413 359.61 535.22 359.215 535.953C358.82 536.686 358.276 537.328 357.619 537.839C356.961 538.349 356.204 538.717 355.396 538.917C354.589 539.118 353.748 539.148 352.928 539.005L349.94 538.781C349.107 538.795 348.281 538.635 347.514 538.311C346.748 537.987 346.057 537.507 345.487 536.9C344.916 536.294 344.479 535.575 344.203 534.79C343.926 534.005 343.817 533.171 343.882 532.341C343.946 531.511 344.184 530.704 344.579 529.971C344.974 529.238 345.517 528.596 346.175 528.086C346.832 527.575 347.589 527.208 348.397 527.007C349.205 526.806 350.046 526.776 350.866 526.919Z" fill="#263238"/>
<path opacity="0.2" d="M344.367 532.267C344.273 533.464 344.536 534.661 345.123 535.708C345.709 536.755 346.593 537.604 347.663 538.148C348.732 538.693 349.939 538.907 351.131 538.766C352.322 538.624 353.445 538.132 354.357 537.352C355.269 536.571 355.929 535.538 356.254 534.383C356.578 533.228 356.553 532.002 356.181 530.861C355.808 529.72 355.106 528.716 354.163 527.974C353.219 527.232 352.077 526.787 350.881 526.695C349.279 526.575 347.695 527.094 346.475 528.138C345.254 529.182 344.497 530.667 344.367 532.267Z" fill="white"/>
<path d="M348.147 528.712L371.263 530.523C373.476 530.696 375.41 529.043 375.584 526.83L386.592 386.332C386.765 384.119 385.112 382.185 382.899 382.011L359.783 380.2C357.57 380.027 355.636 381.68 355.463 383.893L344.454 524.391C344.281 526.604 345.934 528.539 348.147 528.712Z" fill="#263238"/>
<path opacity="0.2" d="M359.687 529.596L371.275 530.504C373.488 530.677 375.422 529.024 375.595 526.811L386.603 386.313C386.777 384.1 385.124 382.166 382.911 381.992L371.323 381.084C369.11 380.911 367.176 382.564 367.003 384.777L355.994 525.275C355.821 527.488 357.474 529.423 359.687 529.596Z" fill="white"/>
<path d="M368.753 306.958L388.249 308.518C389.9 308.65 391.344 307.419 391.476 305.769L391.623 303.931C391.755 302.281 390.525 300.836 388.874 300.704L369.378 299.144C367.728 299.012 366.283 300.243 366.151 301.893L366.004 303.731C365.872 305.381 367.102 306.826 368.753 306.958Z" fill="#263238"/>
<path opacity="0.2" d="M368.753 306.958L388.249 308.518C389.9 308.65 391.344 307.419 391.476 305.769L391.623 303.931C391.755 302.281 390.525 300.836 388.874 300.704L369.378 299.144C367.728 299.012 366.283 300.243 366.151 301.893L366.004 303.731C365.872 305.381 367.102 306.826 368.753 306.958Z" fill="white"/>
<path opacity="0.2" d="M369.2 308.898L370.824 309.025C372.469 309.154 373.907 307.924 374.035 306.279L374.179 304.447C374.307 302.802 373.078 301.364 371.433 301.235L369.809 301.109C368.164 300.98 366.726 302.209 366.597 303.855L366.454 305.687C366.326 307.332 367.555 308.77 369.2 308.898Z" fill="black"/>
<path d="M429.585 396.866L419.635 523.856C419.459 526.098 418.401 528.179 416.692 529.642C414.983 531.104 412.764 531.828 410.521 531.655L364.207 528.024C362.637 527.891 361.183 527.143 360.161 525.942C359.14 524.742 358.634 523.187 358.754 521.615L369.018 389.59C369.148 388.02 369.892 386.564 371.09 385.54C372.287 384.516 373.841 384.007 375.412 384.122L421.726 387.753C422.842 387.832 423.931 388.131 424.93 388.633C425.93 389.134 426.82 389.829 427.55 390.676C428.281 391.523 428.836 392.505 429.185 393.568C429.535 394.63 429.67 395.751 429.585 396.866Z" fill="black"/>
<path opacity="0.2" d="M429.585 396.866L419.635 523.856C419.459 526.098 418.401 528.179 416.692 529.642C414.983 531.104 412.764 531.828 410.521 531.655L364.207 528.024C362.637 527.891 361.183 527.143 360.161 525.942C359.14 524.742 358.634 523.187 358.754 521.615L369.018 389.59C369.148 388.02 369.892 386.564 371.09 385.54C372.287 384.516 373.841 384.007 375.412 384.122L421.726 387.753C422.842 387.832 423.931 388.131 424.93 388.633C425.93 389.134 426.82 389.829 427.55 390.676C428.281 391.523 428.836 392.505 429.185 393.568C429.535 394.63 429.67 395.751 429.585 396.866Z" fill="white"/>
<path opacity="0.2" d="M397.733 385.87V386.05L396.074 385.915C394.5 385.8 392.945 386.311 391.747 387.339C390.549 388.366 389.806 389.825 389.68 391.398L379.342 523.378C379.247 524.703 379.597 526.021 380.336 527.125C381.074 528.229 382.16 529.055 383.42 529.474L364.162 527.98C362.592 527.85 361.137 527.105 360.113 525.908C359.088 524.71 358.579 523.157 358.694 521.585L369.018 389.605C369.144 388.032 369.887 386.573 371.085 385.546C372.283 384.519 373.838 384.007 375.412 384.122L397.733 385.87Z" fill="black"/>
<path opacity="0.2" d="M397.341 390.496L396.656 390.443C395.759 390.372 394.975 391.042 394.905 391.939L384.767 521.326C384.697 522.223 385.367 523.007 386.264 523.077L386.949 523.131C387.846 523.201 388.629 522.531 388.7 521.634L398.837 392.247C398.907 391.35 398.238 390.567 397.341 390.496Z" fill="black"/>
<path opacity="0.2" d="M406.617 391.859L405.932 391.806C405.036 391.735 404.252 392.405 404.182 393.302L394.044 522.689C393.974 523.586 394.644 524.37 395.54 524.44L396.225 524.494C397.122 524.564 397.906 523.894 397.976 522.997L408.114 393.61C408.184 392.713 407.514 391.93 406.617 391.859Z" fill="black"/>
<path opacity="0.2" d="M415.898 392.417L415.213 392.363C414.317 392.293 413.533 392.963 413.462 393.859L403.325 523.247C403.255 524.143 403.925 524.927 404.821 524.997L405.506 525.051C406.403 525.121 407.187 524.451 407.257 523.555L417.395 394.168C417.465 393.271 416.795 392.487 415.898 392.417Z" fill="black"/>
<path opacity="0.2" d="M425.151 392.959L424.465 392.906C423.569 392.835 422.785 393.505 422.715 394.402L412.577 523.789C412.507 524.686 413.177 525.47 414.073 525.54L414.759 525.594C415.655 525.664 416.439 524.994 416.509 524.097L426.647 394.71C426.717 393.813 426.047 393.03 425.151 392.959Z" fill="black"/>
</svg>
