<svg width="747" height="557" viewBox="0 0 747 557" fill="none" xmlns="http://www.w3.org/2000/svg">
<path d="M0 489.136H747V489.509H0V489.136Z" fill="#EBEBEB"/>
<path d="M74.8494 513.174H124.331V513.548H74.8494V513.174Z" fill="#EBEBEB"/>
<path d="M252.157 517.238H265.14V517.611H252.157V517.238Z" fill="#EBEBEB"/>
<path d="M125.825 499.31H154.495V499.683H125.825V499.31Z" fill="#EBEBEB"/>
<path d="M604.099 501.82H668.625V502.193H604.099V501.82Z" fill="#EBEBEB"/>
<path d="M581.33 501.82H590.787V502.193H581.33V501.82Z" fill="#EBEBEB"/>
<path d="M410.626 508.124H550.584V508.498H410.626V508.124Z" fill="#EBEBEB"/>
<path d="M392.922 422.503H681.398C683.658 422.499 685.824 421.599 687.421 419.999C689.018 418.4 689.914 416.232 689.914 413.972V8.45604C689.895 6.2091 688.989 4.06066 687.395 2.47738C685.8 0.894096 683.645 0.00384912 681.398 0H392.922C390.66 0 388.49 0.898772 386.89 2.4986C385.29 4.09842 384.391 6.26825 384.391 8.53074V413.972C384.391 416.235 385.29 418.405 386.89 420.005C388.49 421.604 390.66 422.503 392.922 422.503ZM681.398 0.298801C683.559 0.302759 685.63 1.16392 687.157 2.69327C688.683 4.22262 689.541 6.29519 689.541 8.45604V413.972C689.541 416.133 688.683 418.206 687.157 419.735C685.63 421.265 683.559 422.126 681.398 422.13H392.922C390.76 422.126 388.687 421.265 387.158 419.736C385.629 418.207 384.769 416.135 384.765 413.972V8.45604C384.769 6.29382 385.629 4.22129 387.158 2.69236C388.687 1.16344 390.76 0.30275 392.922 0.298801H681.398Z" fill="#EBEBEB"/>
<path d="M69.7549 422.503H358.246C360.508 422.499 362.675 421.599 364.274 420C365.873 418.401 366.773 416.234 366.777 413.972V8.45604C366.753 6.20774 365.845 4.05931 364.248 2.47644C362.651 0.893574 360.495 0.00380715 358.246 0H69.7549C67.5104 0.00777552 65.3595 0.89976 63.7682 2.48262C62.177 4.06548 61.2736 6.21168 61.254 8.45604V413.972C61.254 416.23 62.1487 418.395 63.742 419.994C65.3354 421.593 67.4976 422.495 69.7549 422.503ZM358.246 0.298801C360.409 0.30275 362.481 1.16344 364.01 2.69236C365.539 4.22129 366.4 6.29382 366.404 8.45604V413.972C366.4 416.135 365.539 418.207 364.01 419.736C362.481 421.265 360.409 422.126 358.246 422.13H69.7549C67.5926 422.126 65.5201 421.265 63.9912 419.736C62.4622 418.207 61.6016 416.135 61.5976 413.972V8.45604C61.6016 6.29382 62.4622 4.22129 63.9912 2.69236C65.5201 1.16344 67.5926 0.30275 69.7549 0.298801H358.246Z" fill="#EBEBEB"/>
<path d="M245.912 201.451C211.629 201.451 183.837 173.659 183.837 139.375C183.837 105.092 211.629 77.2996 245.912 77.2996C280.196 77.2996 307.988 105.092 307.988 139.375C307.988 173.659 280.196 201.451 245.912 201.451Z" fill="#F5F5F5"/>
<path d="M135.132 127.139C135.132 124.457 136.198 121.884 138.095 119.987C139.992 118.091 142.564 117.025 145.247 117.025C146.229 117.022 147.206 117.168 148.145 117.458C148.002 116.428 147.927 115.39 147.921 114.351C147.915 111.199 148.607 108.086 149.945 105.233C151.283 102.38 153.236 99.8582 155.663 97.8481C158.09 95.838 160.931 94.3893 163.984 93.6056C167.036 92.822 170.224 92.7228 173.319 93.3152C175.43 89.8483 178.612 87.1617 182.383 85.6603C186.155 84.159 190.312 83.9242 194.228 84.9914C198.145 86.0586 201.608 88.37 204.097 91.5771C206.585 94.7843 207.964 98.7134 208.025 102.772H208.338C212.825 102.904 217.084 104.779 220.21 108C223.337 111.22 225.086 115.532 225.086 120.02C225.086 124.509 223.337 128.821 220.21 132.041C217.084 135.262 212.825 137.137 208.338 137.269H144.918C142.29 137.183 139.799 136.078 137.972 134.187C136.146 132.296 135.127 129.768 135.132 127.139Z" fill="#EBEBEB"/>
<path d="M294.901 182.776C294.901 180.096 295.964 177.526 297.858 175.629C299.751 173.733 302.32 172.666 305 172.662C306.012 172.652 307.02 172.798 307.988 173.095C307.529 170.051 307.734 166.944 308.589 163.987C309.444 161.03 310.929 158.293 312.941 155.964C314.954 153.634 317.447 151.768 320.248 150.494C323.05 149.219 326.095 148.565 329.173 148.578C330.496 148.581 331.817 148.706 333.117 148.952C335.237 145.519 338.41 142.863 342.163 141.381C345.916 139.899 350.047 139.67 353.941 140.729C357.834 141.788 361.281 144.077 363.767 147.255C366.252 150.433 367.644 154.33 367.733 158.364H368.047C372.534 158.496 376.792 160.371 379.919 163.591C383.046 166.812 384.795 171.124 384.795 175.612C384.795 180.101 383.046 184.413 379.919 187.633C376.792 190.853 372.534 192.728 368.047 192.86H304.776C302.139 192.802 299.63 191.714 297.784 189.83C295.939 187.945 294.904 185.414 294.901 182.776Z" fill="#EBEBEB"/>
<path d="M573.696 201.914C573.696 199.234 574.76 196.664 576.653 194.767C578.547 192.871 581.116 191.804 583.795 191.8C584.806 191.794 585.813 191.935 586.783 192.218C586.628 191.194 586.548 190.161 586.544 189.125C586.553 185.978 587.253 182.871 588.595 180.024C589.938 177.177 591.89 174.66 594.313 172.652C596.737 170.643 599.572 169.192 602.618 168.401C605.665 167.61 608.848 167.499 611.942 168.075C614.051 164.603 617.232 161.912 621.005 160.409C624.778 158.905 628.938 158.67 632.857 159.74C636.775 160.81 640.238 163.126 642.724 166.339C645.209 169.551 646.581 173.486 646.633 177.547H646.947C651.433 177.679 655.692 179.554 658.819 182.774C661.946 185.995 663.695 190.307 663.695 194.795C663.695 199.284 661.946 203.596 658.819 206.816C655.692 210.036 651.433 211.911 646.947 212.043H583.616C580.962 212 578.433 210.913 576.576 209.016C574.718 207.12 573.684 204.568 573.696 201.914Z" fill="#EBEBEB"/>
<path d="M140.974 250.155C140.974 248.535 141.618 246.981 142.764 245.835C143.909 244.689 145.464 244.045 147.084 244.045C147.681 244.044 148.275 244.13 148.847 244.299C148.579 242.461 148.71 240.586 149.23 238.803C149.751 237.02 150.649 235.369 151.863 233.963C153.077 232.558 154.58 231.43 156.269 230.656C157.958 229.882 159.793 229.48 161.651 229.478C162.448 229.477 163.243 229.552 164.026 229.702C165.312 227.631 167.233 226.031 169.502 225.14C171.771 224.249 174.268 224.115 176.62 224.758C178.971 225.401 181.052 226.787 182.552 228.71C184.051 230.632 184.89 232.987 184.942 235.425H185.256C188.03 235.425 190.69 236.526 192.651 238.488C194.612 240.449 195.714 243.109 195.714 245.883C195.714 248.656 194.612 251.316 192.651 253.277C190.69 255.239 188.03 256.341 185.256 256.341H146.98C146.179 256.329 145.389 256.16 144.654 255.842C143.919 255.525 143.253 255.066 142.696 254.492C142.138 253.918 141.699 253.239 141.403 252.495C141.108 251.751 140.962 250.956 140.974 250.155Z" fill="#EBEBEB"/>
<path d="M510.306 53.6495C510.298 52.6956 510.516 51.7533 510.941 50.8993C511.366 50.0453 511.987 49.3037 512.752 48.7346C513.518 48.1654 514.407 47.7849 515.347 47.6239C516.288 47.4629 517.253 47.526 518.164 47.808C517.896 45.9697 518.027 44.0954 518.547 42.3121C519.068 40.5288 519.965 38.8783 521.18 37.4726C522.394 36.0669 523.897 34.9388 525.586 34.1649C527.274 33.3911 529.11 32.9895 530.968 32.9875C531.77 32.9859 532.57 33.061 533.358 33.2116C534.644 31.1402 536.564 29.5397 538.834 28.6487C541.103 27.7577 543.6 27.6239 545.951 28.2672C548.303 28.9105 550.384 30.2966 551.883 32.2187C553.383 34.1408 554.222 36.4962 554.274 38.9336H554.453C557.227 38.9336 559.887 40.0354 561.848 41.9967C563.809 43.958 564.911 46.618 564.911 49.3916C564.911 52.1653 563.809 54.8253 561.848 56.7865C559.887 58.7478 557.227 59.8496 554.453 59.8496H516.177C514.583 59.7874 513.076 59.1039 511.979 57.9454C510.881 56.7868 510.281 55.245 510.306 53.6495Z" fill="#EBEBEB"/>
<path d="M612.749 281.858L572.292 465.635L564.941 462.184L607.431 280.827L612.749 281.858Z" fill="#EBEBEB"/>
<path d="M148.235 464.753C148.235 464.753 173.304 292.077 116.95 113.544L125.78 106.731C125.78 106.731 191.755 241.789 182.148 469.654L148.235 464.753Z" fill="#E6E6E6"/>
<path d="M101.592 66.6025C80.9449 53.0669 50.3926 74.5954 46.1945 108.24C49.2295 106.491 52.4023 104.992 55.6814 103.758C57.2799 95.2873 58.8188 87.8024 58.8188 87.8024L57.7132 102.996C59.5359 102.339 61.5229 101.697 63.6892 101.114L65.1832 92.9417L65.8555 100.576C68.7795 99.8933 71.7434 99.3943 74.7299 99.0821L78.5844 75.1781L80.5266 98.604C83.585 98.5191 86.6457 98.6539 89.6848 99.0074L92.0453 82.7825V99.336C94.6611 99.7587 97.2463 100.353 99.7843 101.114L102.608 76.9111C102.608 76.9111 102.533 90.5215 102.683 102.07C109.989 104.718 116.745 108.688 122.613 113.783L122.837 110.795C122.837 110.795 120.461 78.943 101.592 66.6025Z" fill="#E0E0E0"/>
<path d="M130.142 55.7859C146.576 37.335 181.655 50.1237 194.489 81.4977C191.106 80.5895 187.652 79.9648 184.165 79.6302C180.415 71.8763 176.964 65.0487 176.964 65.0487L181.999 79.421C180.072 79.2716 177.995 79.182 175.769 79.182L172.258 71.712L173.603 79.2567C170.601 79.3384 167.607 79.6078 164.639 80.0634L154.674 58.0419L158.887 81.1989C155.909 81.9064 152.987 82.8353 150.147 83.9777L143.618 68.9331L147.906 84.8592C145.484 85.9415 143.143 87.1946 140.899 88.6091L131.831 65.975C131.831 65.975 135.476 79.0923 138.344 90.2675C131.986 94.7404 126.506 100.347 122.179 106.806L121.178 103.982C121.178 103.982 115.187 72.6383 130.142 55.7859Z" fill="#E0E0E0"/>
<path d="M145.934 99.5452C129.5 83.5146 117.159 97.4685 117.159 97.4685C123.33 99.0671 128.843 103.026 133.593 108.061L135.82 105.163L135.461 110.108C136.596 111.422 137.702 112.797 138.763 114.216L142.528 105.656L140.914 117.249C142.408 119.46 143.902 121.731 145.142 124.002L146.8 115.516L146.666 126.766C148.04 129.306 149.266 131.801 150.356 134.146L152.149 118.564L152.388 138.718C155.017 144.933 156.392 149.295 156.392 149.295C156.392 149.295 162.368 115.591 145.934 99.5452Z" fill="#E0E0E0"/>
<path d="M101.592 137.448L104.983 139.405C105.476 136.791 106.059 134.057 106.702 131.278L104.401 127.05L107.299 128.843C107.523 127.916 107.777 127.005 108.016 126.079L105.028 117.802L109.51 121.104C111.901 113.634 114.948 107.075 118.758 103.938C118.758 103.938 81.0794 115.979 102.324 156.601C102.324 156.601 103.011 150.177 104.52 141.736L101.592 137.448Z" fill="#E0E0E0"/>
<path d="M138.643 104.206L144.619 92.8521L142.139 104.685C142.737 104.774 143.349 104.894 143.962 105.013L151.775 95.2873L149.848 106.477C152.518 107.286 155.137 108.254 157.692 109.376C160.476 110.624 163.194 112.015 165.834 113.544L169.644 103.609L167.866 114.724C170.45 116.218 172.975 117.906 175.336 119.61L177.218 110.855L177.039 120.82C180.027 122.971 182.806 125.152 185.376 127.289L185.137 111.423L187.452 129.037C190.082 131.278 192.457 133.429 194.474 135.341L194.758 124.331L197.552 138.315C200.45 141.198 202.108 143.036 202.108 143.036C200.614 104.505 185.674 89.2516 160.964 85.0684C136.253 80.8852 118.444 106.597 118.444 106.597C118.444 106.597 126.123 102.952 138.643 104.206Z" fill="#E0E0E0"/>
<path d="M66.5726 151.297L68.8286 162.846C69.9192 159.992 71.3982 156.332 73.3106 152.254L71.2787 135.446L74.9838 148.698C77.8804 142.672 81.2369 136.878 85.0235 131.367L81.4977 119.714L87.2048 128.364C88.3551 126.87 89.5354 125.376 90.7605 124.002L88.7585 116.666L91.8511 122.807C92.6878 121.881 93.5542 120.999 94.4357 120.147L92.0005 110.362L95.87 118.833C98.2776 116.63 100.929 114.71 103.773 113.111L99.844 101.159L105.999 112.005C109.87 110.19 114.111 109.305 118.385 109.421C118.385 109.421 110.915 97.4686 97.1847 93.3601C83.4548 89.2516 53.8587 114.112 66.7071 168.956C66.7071 168.956 67.0955 167.716 67.8724 165.58L66.5726 151.297Z" fill="#E0E0E0"/>
<path d="M89.2217 44.7304L86.8761 51.6924C87.7419 51.7414 88.6018 51.8664 89.4458 52.0659L92.2694 42.9973L90.387 52.29C92.1783 52.8254 93.8875 53.6046 95.4666 54.6057L99.351 42.3699L97.11 55.7113C97.7375 56.1744 98.3649 56.6824 99.0073 57.2053L103.4 45.7164L100.098 58.266C103.344 61.5158 106.116 65.2075 108.33 69.232L109.48 52.29L111.422 75.2827C114.643 82.4725 117.242 89.9249 119.191 97.5582C119.191 97.5582 121.582 36.3042 106.836 29.4318C92.0902 22.5594 83.3203 51.9763 83.3203 51.9763C83.9763 51.7831 84.6539 51.6727 85.3373 51.6476L89.2217 44.7304Z" fill="#E0E0E0"/>
<path d="M110.287 112.872L111.602 124.48L116.084 113.29L122.06 122.045L124.42 113.888L131.323 119.684C131.323 119.684 130.471 104.879 126.064 98.111C121.656 91.3432 108.42 96.0941 110.287 112.872Z" fill="#E0E0E0"/>
<path d="M294.318 299.532V218.587C294.318 218.587 310.752 236.052 321.613 233.662C332.475 231.271 346.608 239.533 346.608 239.533C346.608 239.533 332.37 237.456 327.081 243.238C321.793 249.02 298.187 249.632 298.187 249.632V302.49L294.318 299.532Z" fill="#EBEBEB"/>
<path d="M221.859 274.717H225.594V279.811H237.905V274.717H250.006V279.811H262.317V274.717H274.403V279.811H286.729V274.717H298.815V279.811H311.126V274.717H323.227V279.811H335.537V274.717H347.639V279.811H359.949V274.717H364.088L376.085 370.631L209.459 369.944L221.859 274.717Z" fill="#E0E0E0"/>
<path d="M195.355 344.337H200.48V351.329H217.392V344.337H234.005V351.329H250.932V344.337H267.545V351.329H284.458V344.337H301.071V351.329H317.998V344.337H334.611V351.329H351.538V344.337H368.151V351.329H385.064V344.337H390.756L407.249 476.123L178.294 475.167L195.355 344.337Z" fill="#EBEBEB"/>
<path d="M110.78 460.6C114.321 456.611 117.653 452.533 121.358 448.648C121.55 448.454 121.725 448.244 121.881 448.021C123.1 447.232 124.373 446.528 125.69 445.914C125.929 445.839 126.706 445.526 127.498 445.227C128.992 444.689 130.486 444.106 131.98 443.509C141.258 439.774 149.594 435.441 156.601 428.076C160.441 424.042 163.503 419.336 167.477 415.422C167.582 415.556 168.359 415.138 168.732 414.839L171.72 414.451C173.319 414.451 174.932 414.451 176.531 414.555C178.817 414.66 181.103 414.839 183.389 415.048C192.353 428.076 203.558 445.869 208.518 448.215C216.212 451.86 287.117 470.625 292.346 469.475C297.575 468.324 324.945 470.58 331.817 470.326C338.69 470.072 351.135 467.024 369.167 458.733C387.2 450.441 397.03 450.396 418.738 443.479C440.446 436.562 454.998 433.932 467.697 444.57C480.396 455.207 515.281 432.752 526.157 429.555C537.033 426.358 557.83 407.937 572.023 416.527C586.216 425.118 598.018 429.211 615.752 444.57C633.486 459.928 668.67 489.614 668.67 489.614H69.5756L76.4629 477.587C83.0268 477.187 89.4445 475.479 95.338 472.561C101.232 469.644 106.482 465.577 110.78 460.6Z" fill="#F5F5F5"/>
<path d="M682.489 313.74C682.489 313.74 665.054 282.366 617.814 255.295C617.814 255.295 579.358 252.023 535.943 270.952C535.943 270.952 527.143 285.563 537.153 291.33C547.163 297.097 555.454 285.503 555.454 285.503C555.454 285.503 557.307 303.162 570.394 303.67C583.482 304.178 587.276 291.33 587.276 291.33C587.276 291.33 588.561 307.54 604.144 311.633C617.62 315.234 625.986 303.67 625.986 303.67C625.986 303.67 628.675 316.997 640.792 320.836C650.532 323.914 657.226 315.533 657.226 315.533C657.226 315.533 660.019 329.995 670.358 329.995C679.247 329.995 682.489 313.74 682.489 313.74Z" fill="#E0E0E0"/>
<path d="M373.5 556.605C213.519 556.605 83.8283 549.033 83.8283 539.693C83.8283 530.352 213.519 522.78 373.5 522.78C533.481 522.78 663.172 530.352 663.172 539.693C663.172 549.033 533.481 556.605 373.5 556.605Z" fill="#F5F5F5"/>
<path d="M173.304 465.994C173.304 465.994 166.805 456.477 160.889 453.817C154.973 451.158 154.016 441.044 150.804 440.491C147.592 439.938 144.052 449.261 138.434 451.98C132.817 454.699 124.316 465.934 124.316 465.934L173.304 465.994Z" fill="black"/>
<path opacity="0.8" d="M173.304 465.994C173.304 465.994 166.805 456.477 160.889 453.817C154.973 451.158 154.016 441.044 150.804 440.491C147.592 439.938 144.052 449.261 138.434 451.98C132.817 454.699 124.316 465.934 124.316 465.934L173.304 465.994Z" fill="white"/>
<path d="M126.064 534.508H173.334L179.31 465.934H120.088L126.064 534.508Z" fill="black"/>
<path d="M117.234 462.378H182.178V469.594H117.234V462.378Z" fill="black"/>
<path opacity="0.2" d="M117.234 462.378H182.178V469.594H117.234V462.378Z" fill="white"/>
<path d="M152.493 467.458C148.19 474.211 129.769 502.074 118.355 504.105L116.95 500.729C116.95 500.729 127.169 501.954 149.818 465.754C150.033 465.403 150.374 465.147 150.771 465.039C151.168 464.93 151.591 464.978 151.955 465.172C152.147 465.28 152.314 465.428 152.446 465.604C152.579 465.78 152.673 465.982 152.724 466.197C152.774 466.412 152.78 466.635 152.74 466.852C152.7 467.068 152.616 467.275 152.493 467.458Z" fill="#263238"/>
<path d="M219.752 445.825C219.267 445.671 218.756 445.617 218.249 445.664C217.742 445.712 217.25 445.86 216.801 446.101C216.353 446.342 215.957 446.67 215.638 447.067C215.319 447.463 215.082 447.92 214.942 448.409L206.874 476.631L196.416 472.433C196.416 472.433 190.097 495.963 202.034 499.683C213.642 503.314 222.606 481.591 222.606 481.591L211.939 478.603L222.128 450.725C222.299 450.247 222.374 449.741 222.347 449.234C222.32 448.728 222.192 448.232 221.971 447.775C221.749 447.319 221.439 446.911 221.058 446.576C220.677 446.241 220.233 445.986 219.752 445.825Z" fill="black"/>
<path opacity="0.4" d="M201.989 499.683C213.642 503.314 222.606 481.591 222.606 481.591L211.939 478.603C211.939 478.603 210.101 481.74 208.04 480.963C205.978 480.187 206.814 476.586 206.814 476.586L196.356 472.388C196.356 472.388 190.052 496.008 201.989 499.683Z" fill="white"/>
<path d="M112.543 540.305C118.414 537.392 124.42 534.643 126.348 534.508C130.471 534.239 132.847 532.402 135.79 528.891C138.733 525.38 139.928 521.316 145.247 515.669C150.565 510.022 144.664 507.751 155.899 506.302C167.134 504.852 162.786 505.764 169.689 500.789C176.591 495.814 175.186 495.829 183.269 492.273C191.352 488.717 186.63 487.373 196.088 486.581C202.616 486.028 212.94 489.464 218.303 493.289C220.679 494.977 221.889 497.771 224.279 499.265C226.924 500.953 231.032 497.771 230.599 503.463C230.311 504.914 230.246 506.4 230.405 507.87C231.167 511.067 244.329 511.053 247.675 512.054C248.473 512.196 249.187 512.633 249.677 513.279C250.439 514.638 249.289 517.043 250.768 517.537C251.231 517.701 251.754 517.536 252.262 517.611C254.04 517.955 253.577 521.152 255.25 521.884C256.923 522.616 258.85 521.122 260.703 521.884C262.122 522.422 262.6 524.334 263.84 525.096C266.007 526.411 268.248 527.382 270.384 528.786C274.089 531.207 277.301 534.18 281.275 536.256L291.913 539.155L295.095 540.275L112.543 540.305Z" fill="black"/>
<path opacity="0.8" d="M112.543 540.305C118.414 537.392 124.42 534.643 126.348 534.508C130.471 534.239 132.847 532.402 135.79 528.891C138.733 525.38 139.928 521.316 145.247 515.669C150.565 510.022 144.664 507.751 155.899 506.302C167.134 504.852 162.786 505.764 169.689 500.789C176.591 495.814 175.186 495.829 183.269 492.273C191.352 488.717 186.63 487.373 196.088 486.581C202.616 486.028 212.94 489.464 218.303 493.289C220.679 494.977 221.889 497.771 224.279 499.265C226.924 500.953 231.032 497.771 230.599 503.463C230.311 504.914 230.246 506.4 230.405 507.87C231.167 511.067 244.329 511.053 247.675 512.054C248.473 512.196 249.187 512.633 249.677 513.279C250.439 514.638 249.289 517.043 250.768 517.537C251.231 517.701 251.754 517.536 252.262 517.611C254.04 517.955 253.577 521.152 255.25 521.884C256.923 522.616 258.85 521.122 260.703 521.884C262.122 522.422 262.6 524.334 263.84 525.096C266.007 526.411 268.248 527.382 270.384 528.786C274.089 531.207 277.301 534.18 281.275 536.256L291.913 539.155L295.095 540.275L112.543 540.305Z" fill="white"/>
<path d="M237.919 513.114C237.912 513.224 237.912 513.334 237.919 513.443C237.963 518.503 239.434 523.449 242.162 527.711C242.387 528.054 242.611 528.398 242.865 528.742C244.433 530.969 246.326 532.948 248.482 534.613C248.961 535.002 249.459 535.366 249.976 535.704C250.094 535.794 250.219 535.874 250.35 535.943L250.843 536.256C251.098 536.43 251.362 536.589 251.634 536.734C252.053 536.973 252.486 537.213 252.919 537.422C258.121 540.041 264.028 540.914 269.765 539.913C275.502 538.912 280.764 536.09 284.771 531.864C286.599 529.976 288.135 527.826 289.328 525.485C291.297 521.653 292.321 517.407 292.316 513.099V513.01C292.316 512.248 292.316 511.516 292.211 510.739C291.92 507.235 290.94 503.824 289.328 500.699C288.931 499.914 288.492 499.151 288.013 498.413C286.448 495.986 284.512 493.818 282.276 491.989C281.567 491.408 280.823 490.869 280.05 490.376C279.781 490.182 279.501 490.003 279.214 489.838C277.075 488.522 274.762 487.516 272.341 486.85L271.714 486.685C269.554 486.149 267.336 485.878 265.11 485.879C264.413 485.879 263.726 485.909 263.049 485.968H262.526C259.505 486.255 256.554 487.053 253.801 488.329L253.457 488.493C249.368 490.429 245.827 493.356 243.158 497.009C240.488 500.662 238.775 504.925 238.173 509.409C237.999 510.636 237.914 511.875 237.919 513.114Z" fill="black"/>
<path opacity="0.6" d="M237.919 513.114C237.915 518.169 239.322 523.124 241.983 527.422C244.644 531.719 248.452 535.188 252.979 537.437C253.6 536.935 254.109 536.309 254.473 535.599C249.453 520.958 254.473 513.114 254.473 513.114V512.965L254.114 510.619V510.186C253.338 505.838 251.38 497.696 247.137 492.766C244.245 495.31 241.928 498.44 240.338 501.948C238.749 505.456 237.925 509.263 237.919 513.114Z" fill="white"/>
<path opacity="0.6" d="M285.967 508.408C285.967 508.408 290.732 513.174 289.328 525.5C292.168 519.954 293.018 513.6 291.734 507.503C290.451 501.406 287.112 495.934 282.276 492.004C284.913 497.058 286.185 502.712 285.967 508.408Z" fill="white"/>
<path opacity="0.2" d="M247.063 492.766C253.039 499.698 254.533 513.114 254.533 513.114C270.967 517.133 286.011 508.408 286.011 508.408C286.23 502.703 284.958 497.039 282.321 491.974C277.316 487.902 271.025 485.743 264.574 485.883C258.123 486.022 251.932 488.452 247.108 492.736L247.063 492.766Z" fill="white"/>
<path opacity="0.2" d="M252.994 537.437C258.189 540.036 264.081 540.897 269.802 539.894C275.523 538.891 280.771 536.076 284.771 531.864C279.677 534.852 269.264 539.14 254.488 535.584C254.126 536.3 253.617 536.931 252.994 537.437Z" fill="white"/>
<g opacity="0.2">
<path d="M253.442 488.538C254.154 489.535 254.807 490.573 255.399 491.645C256.505 493.705 257.459 495.842 258.253 498.04C259.089 500.236 259.747 502.522 260.344 504.748C260.942 506.974 261.45 509.32 261.838 511.635C261.682 509.279 261.352 506.937 260.852 504.628C260.347 502.31 259.698 500.024 258.91 497.786C258.096 495.564 257.097 493.415 255.922 491.362C255.272 490.327 254.563 489.329 253.801 488.374L253.442 488.538Z" fill="black"/>
<path d="M262.526 486.028C262.899 486.7 263.243 487.388 263.571 488.075C264.669 490.392 265.573 492.795 266.276 495.261C267.067 497.711 267.665 500.221 268.233 502.731C268.8 505.241 269.279 507.781 269.727 510.32C269.575 507.734 269.265 505.16 268.8 502.611C268.353 500.058 267.755 497.534 267.008 495.052C266.263 492.552 265.287 490.126 264.094 487.806C263.766 487.193 263.422 486.581 263.063 485.998L262.526 486.028Z" fill="black"/>
<path d="M271.714 486.715L272.177 487.925C273 490.144 273.674 492.415 274.194 494.723C274.776 497.024 275.225 499.355 275.688 501.7C276.151 504.046 276.48 506.391 276.823 508.752C276.771 506.362 276.576 503.977 276.241 501.61C275.914 499.224 275.465 496.855 274.896 494.514C274.35 492.173 273.615 489.88 272.7 487.657C272.58 487.388 272.461 487.104 272.326 486.835L271.714 486.715Z" fill="black"/>
<path d="M279.214 489.853C279.722 491.526 280.2 493.199 280.543 494.902C280.887 496.606 281.29 498.727 281.589 500.654C281.888 502.582 282.097 504.524 282.276 506.481C282.378 504.518 282.338 502.551 282.157 500.595C281.968 498.633 281.673 496.683 281.275 494.753C280.942 493.279 280.533 491.823 280.05 490.391C279.781 490.197 279.501 490.018 279.214 489.853Z" fill="black"/>
<path d="M246.839 522.183C246.76 524.997 247.128 527.806 247.929 530.504C248.329 531.85 248.828 533.163 249.423 534.434C249.618 534.867 249.842 535.3 250.066 535.718C250.183 535.809 250.308 535.889 250.439 535.958C249.622 534.155 248.976 532.279 248.512 530.355C247.812 527.695 247.51 524.946 247.616 522.198C247.659 519.449 248.081 516.719 248.871 514.085C249.645 511.423 250.749 508.869 252.157 506.481C250.488 508.749 249.197 511.271 248.333 513.951C247.423 516.604 246.92 519.379 246.839 522.183Z" fill="black"/>
<path d="M241.475 521.406L241.55 523.662L241.864 525.903C241.931 526.511 242.035 527.115 242.177 527.711C242.401 528.054 242.626 528.398 242.88 528.742C242.657 527.783 242.507 526.809 242.431 525.828L242.207 523.617V521.406C242.155 520.665 242.155 519.921 242.207 519.18C242.282 518.448 242.282 517.686 242.416 516.984C242.757 514.044 243.496 511.164 244.613 508.423C245.691 505.652 247.171 503.055 249.005 500.714C246.938 502.894 245.273 505.423 244.09 508.184C242.868 510.951 242.053 513.879 241.669 516.879C241.55 517.626 241.565 518.373 241.505 519.135C241.442 519.89 241.432 520.649 241.475 521.406Z" fill="black"/>
<path d="M237.919 513.114C237.912 513.224 237.912 513.334 237.919 513.443L238.009 512.935C238.644 509.839 239.648 506.829 240.997 503.971C242.32 501.077 244.062 498.394 246.166 496.008C243.842 498.23 241.921 500.838 240.489 503.717C239.539 505.584 238.75 507.528 238.129 509.529C237.974 510.717 237.905 511.916 237.919 513.114Z" fill="black"/>
<path d="M287.296 504.105C288.496 505.469 289.525 506.974 290.359 508.587C291.135 510.024 291.79 511.523 292.316 513.069C292.316 512.308 292.316 511.575 292.211 510.799C291.812 509.934 291.358 509.096 290.852 508.289C289.92 506.697 288.717 505.281 287.296 504.105Z" fill="black"/>
<path d="M286.011 496.874C287.147 498.159 288.252 499.429 289.328 500.714C288.931 499.929 288.492 499.166 288.013 498.428C287.376 497.873 286.707 497.354 286.011 496.874Z" fill="black"/>
<path d="M286.011 514.175C283.531 515.131 281.021 515.968 278.541 516.715C276.007 517.466 273.433 518.08 270.832 518.552C265.655 519.669 260.293 519.602 255.145 518.358C257.651 519.297 260.298 519.803 262.974 519.852C265.652 519.905 268.329 519.694 270.967 519.225C273.591 518.729 276.177 518.05 278.706 517.193C281.214 516.373 283.656 515.364 286.011 514.175Z" fill="black"/>
<path d="M286.011 520.674C283.515 521.665 280.96 522.503 278.362 523.184C275.771 523.867 273.135 524.366 270.474 524.678C267.821 525.041 265.141 525.166 262.466 525.051L260.464 524.962L258.462 524.723C257.117 524.633 255.833 524.245 254.488 524.05C257.063 524.9 259.732 525.431 262.436 525.634C265.146 525.826 267.867 525.756 270.563 525.425C273.254 525.069 275.911 524.499 278.511 523.722C281.104 522.949 283.615 521.929 286.011 520.674Z" fill="black"/>
<path d="M285.354 526.291C283.003 527.386 280.571 528.295 278.078 529.01C275.595 529.721 273.056 530.221 270.489 530.504C269.204 530.714 267.919 530.743 266.634 530.833C265.349 530.923 264.05 530.833 262.75 530.758C260.163 530.613 257.594 530.243 255.071 529.653C257.538 530.521 260.101 531.088 262.705 531.341C265.325 531.603 267.965 531.572 270.578 531.251C273.184 530.93 275.752 530.349 278.243 529.518C280.729 528.719 283.115 527.636 285.354 526.291Z" fill="black"/>
<path d="M284.233 530.519C282.016 531.544 279.724 532.398 277.376 533.074C275.042 533.772 272.653 534.272 270.235 534.568C267.822 534.926 265.377 535.022 262.944 534.852L261.121 534.718L259.328 534.419C258.103 534.299 256.953 533.881 255.743 533.642C258.034 534.567 260.442 535.17 262.899 535.435C265.38 535.731 267.888 535.731 270.369 535.435C272.823 535.122 275.241 534.566 277.585 533.776C279.92 532.952 282.151 531.859 284.233 530.519Z" fill="black"/>
</g>
<path d="M576.998 470.371C576.998 470.371 571.679 462.378 562.222 461.795C552.765 461.213 544.787 473.269 544.787 473.269H547.775C547.775 473.269 555.409 465.037 560.877 465.037C566.346 465.037 571.664 471.835 571.664 471.835L576.998 470.371Z" fill="#263238"/>
<path d="M657.24 533.448C653.969 527.995 617.321 531.535 609.044 528.278L604.562 535.972C604.562 535.972 610.882 539.468 621.37 538.228C631.857 536.988 647.709 536.66 651.847 540.305L657.24 533.448Z" fill="#263238"/>
<path opacity="0.3" d="M657.24 533.448C653.969 527.995 617.321 531.535 609.044 528.278L604.562 535.972C604.562 535.972 610.882 539.468 621.37 538.228C631.857 536.988 647.709 536.66 651.847 540.305L657.24 533.448Z" fill="black"/>
<path d="M502.88 516.819C503.179 518.119 503.508 519.389 503.881 520.629C506.869 530.803 511.471 539.035 514.817 540.305H609.821C611.127 540.305 612.416 540.006 613.589 539.432C614.763 538.857 615.788 538.021 616.589 536.988L616.663 536.884C617.014 536.422 617.31 535.92 617.545 535.39C624.104 521.69 630.722 494.29 621.414 481.8C620.441 480.498 619.317 479.314 618.068 478.274L617.799 478.065C615.828 476.457 613.646 475.125 611.315 474.106H611.24C604.696 471.118 596.659 469.788 588.83 469.206C586.544 469.026 584.348 468.922 582.047 468.877C576.221 468.713 570.783 468.877 566.45 468.982C551.181 469.37 539.17 473.912 530.983 473.12C527.976 472.806 524.937 473.049 522.019 473.837C521.178 474.073 520.35 474.352 519.538 474.674C515.813 476.249 512.347 478.38 509.26 480.993C499.907 488.418 499.773 503.642 502.88 516.819Z" fill="#263238"/>
<path opacity="0.1" d="M502.88 516.819C503.179 518.119 503.508 519.389 503.881 520.629C506.869 530.803 511.471 539.035 514.817 540.305H609.821C611.127 540.305 612.416 540.006 613.589 539.432C614.763 538.857 615.788 538.021 616.589 536.988L616.663 536.884C617.014 536.422 617.31 535.92 617.545 535.39C624.104 521.69 630.722 494.29 621.414 481.8C620.441 480.498 619.317 479.314 618.068 478.274L617.799 478.065C615.828 476.457 613.646 475.125 611.315 474.106H611.24C604.696 471.118 596.659 469.788 588.83 469.206C586.544 469.026 584.348 468.922 582.047 468.877C576.221 468.713 570.783 468.877 566.45 468.982C551.181 469.37 539.17 473.912 530.983 473.12C527.976 472.806 524.937 473.049 522.019 473.837C521.178 474.073 520.35 474.352 519.538 474.674C515.813 476.249 512.347 478.38 509.26 480.993C499.907 488.418 499.773 503.642 502.88 516.819Z" fill="white"/>
<path opacity="0.2" d="M517.432 515.878C524.23 515.878 537.825 519.12 557.919 514.698C567.288 512.472 577.04 512.4 586.44 514.489C586.664 511.501 586.903 508.169 587.172 504.554C588.95 480.276 602.799 470.087 611.24 474.121H611.315C613.605 475.217 615.778 476.543 617.799 478.08L618.068 478.289C619.317 479.329 620.441 480.513 621.414 481.815C630.722 494.305 624.104 521.705 617.545 535.405C617.31 535.935 617.014 536.437 616.663 536.899L616.589 537.003C615.781 537.919 614.788 538.652 613.675 539.155C612.562 539.657 611.356 539.917 610.135 539.917H593.118C586.171 539.917 585.349 533.552 586.126 519.882C584.946 519.21 583.497 518.388 581.883 517.283C577.655 514.534 561.206 515.893 554.11 518.552C547.013 521.212 528.398 522.392 519.389 520.928C514.264 520.167 509.061 520.072 503.911 520.644C503.538 519.404 503.209 518.134 502.91 516.834C505.988 516.491 512.442 515.878 517.432 515.878Z" fill="black"/>
<path opacity="0.2" d="M579.194 481.591C575.056 496.665 572.217 501.984 571.126 503.463C570.036 504.942 539.947 508.513 534.299 508.498C527.781 508.441 521.281 507.801 514.877 506.585C511.038 505.614 509.798 486.282 519.479 474.689C520.29 474.367 521.118 474.088 521.959 473.852C516.685 485.684 516.565 500.176 517.193 502.238C518.089 505.106 526.949 504.688 531.087 504.598C535.225 504.509 560.967 502.91 563.597 501.864C566.135 500.81 568.297 499.014 569.797 496.71C571.873 494.051 572.157 484.893 575.907 476.989C577.499 473.987 579.573 471.266 582.047 468.937C584.273 468.937 586.529 469.086 588.83 469.265C586.468 470.553 584.394 472.311 582.736 474.431C581.079 476.551 579.874 478.987 579.194 481.591Z" fill="black"/>
<path d="M609.044 495.47L617.321 497.502C617.321 497.502 623.192 514.354 619.681 521.406C616.17 528.458 643.585 538.273 657.24 533.358L651.892 540.215C651.892 540.215 619.382 538.169 613.182 525.798C606.982 513.428 615.842 511.516 616.424 508.035C617.007 504.554 609.044 495.47 609.044 495.47Z" fill="#263238"/>
<path opacity="0.1" d="M609.044 495.47L617.321 497.502C617.321 497.502 623.192 514.354 619.681 521.406C616.17 528.458 643.585 538.273 657.24 533.358L651.892 540.215C651.892 540.215 619.382 538.169 613.182 525.798C606.982 513.428 615.842 511.516 616.424 508.035C617.007 504.554 609.044 495.47 609.044 495.47Z" fill="white"/>
<path d="M535.943 147.906C535.943 147.906 567.914 129.978 574.533 125.376C581.151 120.775 616.559 86.0096 618.531 85.0385C618.531 85.0385 617.216 81.0644 620.189 78.7487C623.162 76.433 634.756 68.8286 636.399 68.8286C638.043 68.8286 642.375 85.0385 641.703 89.0125C641.031 92.9865 624.821 93.9726 624.821 93.9726C624.821 93.9726 591.071 133.265 585.782 138.793C580.494 144.32 544.429 167.791 544.429 167.791L535.943 147.906Z" fill="#E4897B"/>
<path d="M522.825 151.208C522.825 151.208 515.818 165.356 532.835 187.826L570.349 160.246L555.409 133.13L522.825 151.208Z" fill="black"/>
<path opacity="0.6" d="M532.835 187.826L550.554 174.798L552.87 173.095L562.865 165.834L570.335 160.321L564.822 150.356L561.744 144.619L555.395 133.13L549.269 136.537L543.98 139.525L522.855 151.267C522.162 152.907 521.733 154.647 521.585 156.422C520.883 162.383 521.899 173.379 532.835 187.826Z" fill="white"/>
<path opacity="0.2" d="M532.835 187.826L550.554 174.798C544.473 162.218 528.742 157.781 521.555 156.362C520.883 162.383 521.899 173.379 532.835 187.826Z" fill="black"/>
<g opacity="0.2">
<path d="M543.95 139.465L549.239 142.543V136.537L543.95 139.465Z" fill="white"/>
<path d="M555.454 146.472L562.088 155.779L564.837 150.281L561.714 144.619L555.454 146.472Z" fill="white"/>
<path d="M550.554 160.47L552.87 173.095L562.864 165.759L550.554 160.47Z" fill="white"/>
<path d="M545.967 153.269L542.277 162.726L534.613 152.298L545.967 153.269Z" fill="white"/>
</g>
<path d="M453.1 144.515C453.1 144.515 421.129 126.587 414.51 121.985C407.892 117.384 372.484 82.6182 370.497 81.6471C370.497 81.6471 371.827 77.673 368.854 75.3573C365.881 73.0416 354.287 65.4372 352.644 65.4372C351 65.4372 346.668 81.6471 347.34 85.6211C348.012 89.5951 364.222 90.5812 364.222 90.5812C364.222 90.5812 397.972 129.888 403.26 135.401C408.549 140.914 444.614 164.34 444.614 164.34L453.1 144.515Z" fill="#E4897B"/>
<path d="M491.302 333.834C491.302 333.834 491.989 345.114 493.02 360.203C493.707 369.586 494.514 380.417 495.485 390.89C496.74 404.964 498.159 418.38 499.579 426.746C500.878 434.41 518.134 529.593 518.134 529.593H529.698C526.052 440.835 520.405 406.413 520.196 401.244C520.196 399.555 520.061 397.21 519.987 394.416C519.763 384.287 519.568 368.286 519.449 356.648C519.359 348.251 519.314 342.141 519.314 342.141L491.302 333.834Z" fill="#E4897B"/>
<path d="M446.706 405.651C447.109 413.405 451.726 529.175 451.726 529.175H464.44C470.939 436.965 468.474 404.949 469.639 398.554C471.626 387.678 473.493 373.38 474.778 362.698C475.809 354.168 476.452 348.027 476.452 348.027L450.531 336.822C450.531 336.822 448.962 350.268 447.782 366.374C447.199 374.441 446.691 383.211 446.542 391.368C446.422 396.478 446.452 401.348 446.706 405.651Z" fill="#E4897B"/>
<path opacity="0.2" d="M519.509 356.618L493.02 360.203C493.707 369.586 494.514 380.417 495.485 390.89L520.046 394.416C519.822 384.257 519.628 368.256 519.509 356.618Z" fill="black"/>
<path opacity="0.2" d="M446.527 391.428L469.624 398.539C471.611 387.663 473.478 373.366 474.763 362.683L447.767 366.359C447.184 374.441 446.706 383.211 446.527 391.428Z" fill="black"/>
<path d="M515.43 526.007H530.714C530.964 526.011 531.206 526.098 531.401 526.255C531.596 526.412 531.733 526.63 531.789 526.874L534.254 538.049C534.356 538.529 534.264 539.029 533.998 539.44C533.732 539.852 533.314 540.141 532.835 540.245C532.696 540.26 532.556 540.26 532.417 540.245C527.487 540.171 523.886 539.857 517.701 539.857C513.876 539.857 502.357 540.26 497.099 540.26C491.84 540.26 491.123 535.061 493.289 534.568C502.97 532.462 510.261 529.548 513.353 526.769C513.923 526.259 514.666 525.986 515.43 526.007Z" fill="black"/>
<path d="M450.77 525.619H466.023C466.273 525.616 466.516 525.699 466.712 525.854C466.908 526.009 467.044 526.227 467.099 526.471L469.579 537.661C469.627 537.903 469.626 538.153 469.576 538.395C469.527 538.637 469.43 538.866 469.291 539.071C469.152 539.275 468.974 539.45 468.767 539.585C468.56 539.72 468.328 539.812 468.085 539.857H467.682C462.737 539.782 459.151 539.483 452.951 539.483C449.141 539.483 437.622 539.872 432.349 539.872C427.075 539.872 426.373 534.673 428.554 534.195C438.235 532.088 445.511 529.16 448.603 526.381C448.896 526.117 449.239 525.914 449.61 525.784C449.982 525.653 450.376 525.597 450.77 525.619Z" fill="black"/>
<path d="M490.256 384.361C490.137 383.345 490.017 382.285 489.898 381.089C488.404 365.791 486.775 347.43 485.416 329.741C480.261 343.605 478.035 363.102 475.346 384.361H443.972C446.572 329.337 453.384 284.577 457 265.484H523.542C523.632 272.326 524.394 338.69 526.112 384.361H490.256Z" fill="#263238"/>
<path opacity="0.2" d="M490.256 384.361C490.137 383.345 490.017 382.285 489.898 381.089C488.404 365.791 486.775 347.43 485.416 329.741C480.261 343.605 478.035 363.102 475.346 384.361H443.972C446.572 329.337 453.384 284.577 457 265.484H523.542C523.632 272.326 524.394 338.69 526.112 384.361H490.256Z" fill="white"/>
<path d="M481.068 129.216C481.214 129.818 481.393 130.412 481.606 130.994C482.796 134.316 484.962 137.201 487.821 139.271C488.54 139.798 489.299 140.268 490.092 140.675C493.121 142.296 496.598 142.881 499.991 142.341C503.385 141.802 506.509 140.167 508.886 137.687C515.176 131.338 515.012 124.002 515.729 111.587C515.918 108.919 515.484 106.244 514.459 103.773C513.602 101.711 512.347 99.8376 510.766 98.2604C509.185 96.6833 507.308 95.433 505.244 94.5812C503.179 93.7293 500.967 93.2925 498.734 93.2958C496.501 93.299 494.29 93.7422 492.228 94.6C480.097 99.5601 478.424 118.026 481.068 129.216Z" fill="#E4897B"/>
<path opacity="0.2" d="M487.866 139.271C488.584 139.798 489.344 140.268 490.137 140.675C492.217 141.784 494.519 142.414 496.874 142.517C499.229 142.62 501.578 142.195 503.747 141.273C503.185 139.78 502.437 138.365 501.521 137.06C496.851 136.474 492.112 137.241 487.866 139.271Z" fill="black"/>
<path d="M512.86 155.376C506.735 160.934 491.75 158.887 491.75 158.887C491.75 158.887 482.398 156.317 484.37 153.404C489.868 152.493 492.542 149.923 493.647 146.621C494.244 144.581 494.432 142.444 494.2 140.331C494.112 139.153 493.957 137.981 493.737 136.82L512.263 123.106C509.842 132.159 506.869 148.817 512.86 155.376Z" fill="#E4897B"/>
<path d="M487.866 117.921L485.191 118.922L486.521 113.454C486.521 113.454 482.607 107.478 486.521 102.294C486.521 102.294 475.705 99.0074 481.815 93.3302C484.086 91.2087 486.91 93.3302 494.38 90.0882C498.428 88.3103 511.097 88.1759 511.725 93.3302C511.725 93.3302 520.853 93.3302 521.839 108.868C522.128 113.42 521.411 117.98 519.741 122.225C518.07 126.469 515.487 130.294 512.173 133.429C512.173 133.429 501.147 136.029 495.739 131.606C490.331 127.184 487.866 117.921 487.866 117.921Z" fill="#263238"/>
<path d="M494.917 118.803C494.684 119.971 494.193 121.072 493.48 122.026C492.766 122.98 491.849 123.762 490.794 124.316C488.269 125.391 486.596 121.836 486.969 118.101C487.313 114.784 489.031 110.123 491.735 110.75C494.439 111.378 495.799 115.456 494.917 118.803Z" fill="#E4897B"/>
<path opacity="0.2" d="M485.356 329.666C486.775 347.355 488.344 365.761 489.838 381.06C492.109 358.963 494.887 343.217 494.887 343.217C494.887 343.217 497.487 341.08 504.643 329.666C511.8 318.252 504.643 296.918 504.643 296.918C504.972 316.728 485.356 329.666 485.356 329.666Z" fill="black"/>
<path d="M441.656 381.777L443.031 386.961H476.437V382.165L441.656 381.777Z" fill="black"/>
<path d="M488.643 382.494L489.644 387.29H527.472L529.757 382.494H488.643Z" fill="black"/>
<path d="M483.981 151.775C483.981 151.775 489.419 143.185 503.119 142.572C516.819 141.96 517.865 151.387 517.865 151.387L483.981 151.775Z" fill="black"/>
<path opacity="0.5" d="M483.981 151.775C483.981 151.775 489.419 143.185 503.119 142.572C516.819 141.96 517.865 151.387 517.865 151.387L483.981 151.775Z" fill="white"/>
<path d="M533.179 146.412C529.046 192.924 529.547 239.732 534.673 286.146L454.4 281.245C455.296 199.329 466.277 147.727 466.277 147.727C466.277 147.727 486.969 152.074 503.807 151.447C513.767 150.984 523.633 149.293 533.179 146.412Z" fill="black"/>
<path d="M466.218 147.786C466.218 147.786 455.491 172.856 454.34 198.224C453.19 223.592 497.905 258.462 497.905 258.462C497.905 258.462 532.372 234.737 558.965 236.889C585.558 239.04 593.835 248.497 593.835 248.497C593.835 248.497 573.158 204.26 537.153 188.842C537.153 188.842 544.623 163.369 533.179 146.531C533.179 146.412 508.289 154.569 466.218 147.786Z" fill="black"/>
<path opacity="0.6" d="M454.34 198.224C454.303 198.941 454.303 199.659 454.34 200.375C454.402 201.484 454.537 202.587 454.744 203.677C455.231 206.243 455.997 208.748 457.03 211.147C460.222 218.169 464.387 224.707 469.4 230.569C471.94 233.677 474.629 236.665 477.288 239.443C483.729 246.235 490.617 252.589 497.905 258.462C506.957 252.47 516.581 247.391 526.635 243.298C529.698 242.073 532.88 240.922 536.122 239.951C543.485 237.568 551.222 236.555 558.95 236.963C566.327 237.454 573.611 238.88 580.628 241.206C581.838 241.625 582.959 242.073 583.99 242.506L584.916 242.909C587.161 243.883 589.303 245.079 591.31 246.48C591.534 246.63 591.744 246.794 591.938 246.943C592.132 247.093 592.64 247.481 592.909 247.72L593.267 248.034C593.359 248.106 593.444 248.186 593.521 248.273L593.701 248.452L593.805 248.557C593.805 248.482 593.626 248.168 593.357 247.63L592.939 246.809C592.52 245.972 591.938 244.852 591.176 243.492L590.847 242.895L590.264 241.864C590.07 241.505 589.861 241.132 589.637 240.758C588.77 239.264 587.755 237.531 586.649 235.693C580.508 225.756 573.238 216.562 564.986 208.293C562.044 205.368 558.931 202.619 555.663 200.062C550.016 195.567 543.809 191.826 537.198 188.931C538.911 182.37 539.691 175.601 539.513 168.822C539.47 166.687 539.295 164.556 538.99 162.443C538.305 156.725 536.317 151.24 533.179 146.412C529.507 147.479 525.762 148.273 521.974 148.787C517.023 149.543 512.036 150.041 507.034 150.281C496.972 150.732 486.89 150.377 476.885 149.221C473.478 148.852 469.938 148.354 466.262 147.727L465.919 148.563C463.541 154.528 461.492 160.617 459.778 166.805C459.121 169.181 458.464 171.72 457.836 174.38C457.209 177.039 456.731 179.414 456.253 182.059C455.265 187.4 454.626 192.8 454.34 198.224Z" fill="white"/>
<g opacity="0.2">
<path d="M464.634 218.587L469.355 230.659C471.895 233.766 474.584 236.754 477.243 239.533L486.85 221.605L464.634 218.587Z" fill="white"/>
<path d="M545.967 207.053L564.941 208.144C561.999 205.218 558.886 202.47 555.619 199.912L545.967 207.053Z" fill="white"/>
<path d="M524.08 159.26L526.112 178.981L539.558 168.807C539.514 166.672 539.34 164.541 539.035 162.428L524.08 159.26Z" fill="white"/>
<path d="M517.865 211.222L524.08 192.278L505.181 188.782L517.865 211.222Z" fill="white"/>
<path d="M485.356 193.174V207.352L471.79 202.482L485.356 193.174Z" fill="white"/>
<path d="M520.256 234.244L526.635 243.208C529.698 241.983 532.88 240.833 536.122 239.862L540.933 228.896L520.256 234.244Z" fill="white"/>
<path d="M568.721 220.649L558.965 224.787L568.721 231.436V220.649Z" fill="white"/>
<path d="M580.643 241.072C590.354 244.463 593.835 248.437 593.835 248.437C591.667 244.016 589.258 239.717 586.619 235.559L580.643 241.072Z" fill="white"/>
<path d="M500.923 222.725L509.319 231.436L496.62 233.662L500.923 222.725Z" fill="white"/>
<path d="M500.923 168.045L491.048 181.342L483.981 166.282L500.923 168.045Z" fill="white"/>
<path d="M456.208 182.119L468.832 173.812L459.734 166.865C458.449 171.466 457.164 176.651 456.208 182.119Z" fill="white"/>
<path d="M454.355 200.375C454.628 204.113 455.537 207.776 457.044 211.207L462.333 198.194L454.355 200.375Z" fill="white"/>
<path d="M465.874 148.623L473.867 156.87L476.855 149.28C473.449 148.912 469.908 148.414 466.233 147.786L465.874 148.623Z" fill="white"/>
<path d="M506.989 150.296L512.86 162.726L521.974 148.847C517.007 149.589 512.005 150.073 506.989 150.296Z" fill="white"/>
</g>
<path opacity="0.2" d="M454.34 198.224C454.303 198.941 454.303 199.659 454.34 200.375C454.402 201.484 454.537 202.587 454.744 203.677C465.202 187.094 462.722 172.094 462.722 172.094L457.777 174.439C457.209 176.905 456.671 179.474 456.193 182.119C455.227 187.441 454.609 192.821 454.34 198.224Z" fill="black"/>
<path d="M496.71 81.7666C478.976 75.6561 474.524 99.2762 492.139 115.247C509.753 131.218 529.982 133.175 532.282 125.078C534.583 116.98 523.781 91.1339 496.71 81.7666Z" fill="black"/>
<path d="M514.474 80.5714C505.375 80.5714 492.452 89.8342 492.452 89.8342C492.452 89.8342 490.6 99.6946 499.668 108.36C508.737 117.025 516.924 118.399 521.974 115.038C527.023 111.676 528.428 98.604 528.428 98.604C527.967 97.0577 527.14 95.6457 526.016 94.4881C524.893 93.3305 523.506 92.4617 521.974 91.9557C521.974 91.9557 520.48 80.676 514.474 80.5714Z" fill="black"/>
<path opacity="0.2" d="M499.668 108.36C508.737 117.025 516.894 118.399 521.974 115.053C522.859 114.431 523.611 113.639 524.185 112.722C527.472 107.777 528.428 98.6488 528.428 98.6488C519.763 109.107 509.723 98.3052 508.333 91.0144C507.922 89.2827 507.917 87.4793 508.319 85.7454C508.721 84.0114 509.518 82.3939 510.649 81.0196C504.673 82.3044 498.129 86.1291 494.753 88.2954C493.259 89.2067 492.452 89.7894 492.452 89.7894C492.452 89.7894 490.6 99.6946 499.668 108.36Z" fill="black"/>
<path opacity="0.6" d="M499.668 108.36C508.737 117.025 516.894 118.399 521.974 115.053C522.859 114.431 523.611 113.639 524.185 112.722C515.101 115.426 504.285 110.929 498.473 102.847C495.392 98.663 494.058 93.4448 494.753 88.2953C493.259 89.2067 492.452 89.7893 492.452 89.7893C492.452 89.7893 490.6 99.6946 499.668 108.36Z" fill="white"/>
<path d="M466.218 147.786C466.218 147.786 473.224 161.95 456.208 184.404L418.693 156.87L433.633 129.754L466.218 147.786Z" fill="black"/>
<path opacity="0.6" d="M418.693 156.87L428.479 164.056L442.956 174.708L456.208 184.449C457.074 183.314 457.866 182.193 458.613 181.103C460.13 178.88 461.508 176.565 462.737 174.171C465.767 168.609 467.441 162.41 467.622 156.078C467.723 153.239 467.214 150.412 466.128 147.786L457.791 143.155L443.434 135.192L437.129 131.681L433.574 129.709L418.693 156.87Z" fill="white"/>
<g opacity="0.2">
<path d="M428.479 164.011L442.956 174.663L449.335 160.47L428.479 164.011Z" fill="white"/>
<path d="M429.824 141.183L443.18 146.472L443.524 135.192L437.219 131.681L429.824 141.183Z" fill="white"/>
<path d="M453.1 152.298L467.622 156.078C467.723 153.239 467.214 150.412 466.128 147.786L457.791 143.155L453.1 152.298Z" fill="white"/>
<path d="M456.208 170.421L458.658 181.058C460.175 178.835 461.552 176.52 462.781 174.126L456.208 170.421Z" fill="white"/>
</g>
<path d="M363.879 402.797L386.946 400.975L379.327 303.7L356.185 305.508L363.879 402.797ZM382.21 396.821L368.002 397.927L361.085 309.587L375.278 308.481L382.21 396.821Z" fill="#263238"/>
<path d="M379.82 528.189L376.832 528.428C376 528.416 375.175 528.578 374.409 528.903C373.643 529.228 372.954 529.709 372.385 530.316C371.816 530.923 371.38 531.642 371.105 532.428C370.83 533.213 370.722 534.047 370.788 534.876C370.854 535.705 371.092 536.511 371.487 537.243C371.883 537.975 372.427 538.617 373.084 539.126C373.742 539.636 374.498 540.003 375.306 540.203C376.113 540.404 376.953 540.433 377.773 540.29L380.761 540.051C381.593 540.065 382.419 539.905 383.186 539.581C383.953 539.257 384.644 538.777 385.214 538.17C385.784 537.564 386.222 536.845 386.498 536.06C386.774 535.275 386.884 534.441 386.819 533.611C386.754 532.781 386.517 531.974 386.122 531.241C385.727 530.508 385.183 529.866 384.526 529.355C383.868 528.845 383.111 528.478 382.303 528.277C381.495 528.076 380.655 528.046 379.835 528.189H379.82Z" fill="#263238"/>
<path opacity="0.1" d="M386.319 533.537C386.415 534.734 386.155 535.932 385.57 536.981C384.986 538.03 384.103 538.881 383.034 539.428C381.965 539.974 380.758 540.191 379.565 540.051C378.373 539.911 377.249 539.421 376.336 538.641C375.422 537.862 374.761 536.829 374.435 535.674C374.109 534.518 374.133 533.292 374.505 532.15C374.876 531.009 375.578 530.003 376.522 529.26C377.465 528.518 378.608 528.072 379.805 527.98C380.599 527.906 381.401 527.992 382.162 528.234C382.922 528.475 383.627 528.866 384.234 529.384C384.841 529.902 385.339 530.536 385.697 531.25C386.055 531.963 386.266 532.741 386.319 533.537Z" fill="white"/>
<path d="M396.134 526.919L393.146 527.143C392.314 527.129 391.488 527.289 390.721 527.613C389.954 527.937 389.263 528.417 388.693 529.024C388.123 529.63 387.685 530.349 387.409 531.134C387.133 531.919 387.023 532.753 387.088 533.583C387.153 534.413 387.39 535.22 387.785 535.953C388.18 536.686 388.724 537.328 389.381 537.839C390.039 538.349 390.796 538.717 391.604 538.917C392.411 539.118 393.252 539.148 394.072 539.005L397.06 538.781C397.893 538.795 398.719 538.635 399.486 538.311C400.252 537.987 400.943 537.507 401.513 536.9C402.084 536.294 402.521 535.575 402.797 534.79C403.074 534.005 403.183 533.171 403.118 532.341C403.054 531.511 402.816 530.704 402.421 529.971C402.026 529.238 401.483 528.596 400.825 528.086C400.168 527.575 399.411 527.208 398.603 527.007C397.795 526.806 396.954 526.776 396.134 526.919Z" fill="#263238"/>
<path opacity="0.2" d="M402.633 532.267C402.727 533.464 402.464 534.661 401.877 535.708C401.291 536.755 400.407 537.604 399.337 538.148C398.268 538.693 397.061 538.907 395.869 538.766C394.678 538.624 393.555 538.132 392.643 537.352C391.731 536.571 391.071 535.538 390.746 534.383C390.422 533.228 390.447 532.002 390.819 530.861C391.192 529.72 391.894 528.716 392.837 527.974C393.781 527.232 394.923 526.787 396.119 526.695C397.721 526.575 399.305 527.094 400.525 528.138C401.746 529.182 402.503 530.667 402.633 532.267Z" fill="white"/>
<path d="M398.853 528.712L375.737 530.523C373.524 530.696 371.59 529.043 371.416 526.83L360.408 386.332C360.235 384.119 361.888 382.185 364.101 382.011L387.217 380.2C389.43 380.027 391.364 381.68 391.537 383.893L402.546 524.391C402.719 526.604 401.066 528.539 398.853 528.712Z" fill="#263238"/>
<path opacity="0.2" d="M387.313 529.596L375.725 530.504C373.512 530.677 371.578 529.024 371.405 526.811L360.397 386.313C360.223 384.1 361.876 382.166 364.089 381.992L375.677 381.084C377.89 380.911 379.824 382.564 379.997 384.777L391.006 525.275C391.179 527.488 389.526 529.423 387.313 529.596Z" fill="white"/>
<path d="M378.247 306.958L358.751 308.518C357.1 308.65 355.656 307.419 355.524 305.769L355.377 303.931C355.245 302.281 356.475 300.836 358.126 300.704L377.622 299.144C379.272 299.012 380.717 300.243 380.849 301.893L380.996 303.731C381.128 305.381 379.898 306.826 378.247 306.958Z" fill="#263238"/>
<path opacity="0.2" d="M378.247 306.958L358.751 308.518C357.1 308.65 355.656 307.419 355.524 305.769L355.377 303.931C355.245 302.281 356.475 300.836 358.126 300.704L377.622 299.144C379.272 299.012 380.717 300.243 380.849 301.893L380.996 303.731C381.128 305.381 379.898 306.826 378.247 306.958Z" fill="white"/>
<path opacity="0.2" d="M377.8 308.898L376.176 309.025C374.531 309.154 373.093 307.924 372.965 306.279L372.821 304.447C372.693 302.802 373.922 301.364 375.567 301.235L377.191 301.109C378.836 300.98 380.274 302.209 380.403 303.855L380.546 305.687C380.674 307.332 379.445 308.77 377.8 308.898Z" fill="black"/>
<path d="M317.415 396.866L327.365 523.856C327.541 526.098 328.599 528.179 330.308 529.642C332.017 531.104 334.236 531.828 336.479 531.655L382.793 528.024C384.363 527.891 385.817 527.143 386.839 525.942C387.86 524.742 388.366 523.187 388.246 521.615L377.982 389.59C377.852 388.02 377.108 386.564 375.91 385.54C374.713 384.516 373.159 384.007 371.588 384.122L325.274 387.753C324.158 387.832 323.069 388.131 322.07 388.633C321.07 389.134 320.18 389.829 319.45 390.676C318.719 391.523 318.164 392.505 317.815 393.568C317.465 394.63 317.33 395.751 317.415 396.866Z" fill="black"/>
<path opacity="0.2" d="M317.415 396.866L327.365 523.856C327.541 526.098 328.599 528.179 330.308 529.642C332.017 531.104 334.236 531.828 336.479 531.655L382.793 528.024C384.363 527.891 385.817 527.143 386.839 525.942C387.86 524.742 388.366 523.187 388.246 521.615L377.982 389.59C377.852 388.02 377.108 386.564 375.91 385.54C374.713 384.516 373.159 384.007 371.588 384.122L325.274 387.753C324.158 387.832 323.069 388.131 322.07 388.633C321.07 389.134 320.18 389.829 319.45 390.676C318.719 391.523 318.164 392.505 317.815 393.568C317.465 394.63 317.33 395.751 317.415 396.866Z" fill="white"/>
<path opacity="0.2" d="M349.267 385.87V386.05L350.926 385.915C352.5 385.8 354.055 386.311 355.253 387.339C356.451 388.366 357.194 389.825 357.32 391.398L367.658 523.378C367.753 524.703 367.403 526.021 366.664 527.125C365.926 528.229 364.84 529.055 363.58 529.474L382.838 527.98C384.408 527.85 385.863 527.105 386.887 525.908C387.912 524.71 388.421 523.157 388.306 521.585L377.982 389.605C377.856 388.032 377.113 386.573 375.915 385.546C374.717 384.519 373.162 384.007 371.588 384.122L349.267 385.87Z" fill="black"/>
<path opacity="0.2" d="M349.659 390.496L350.344 390.443C351.241 390.372 352.025 391.042 352.095 391.939L362.233 521.326C362.303 522.223 361.633 523.007 360.736 523.077L360.051 523.131C359.154 523.201 358.371 522.531 358.3 521.634L348.163 392.247C348.093 391.35 348.762 390.567 349.659 390.496Z" fill="black"/>
<path opacity="0.2" d="M340.383 391.859L341.068 391.806C341.964 391.735 342.748 392.405 342.818 393.302L352.956 522.689C353.026 523.586 352.356 524.37 351.46 524.44L350.775 524.494C349.878 524.564 349.094 523.894 349.024 522.997L338.886 393.61C338.816 392.713 339.486 391.93 340.383 391.859Z" fill="black"/>
<path opacity="0.2" d="M331.102 392.417L331.787 392.363C332.683 392.293 333.467 392.963 333.538 393.859L343.675 523.247C343.745 524.143 343.075 524.927 342.179 524.997L341.494 525.051C340.597 525.121 339.813 524.451 339.743 523.555L329.605 394.168C329.535 393.271 330.205 392.487 331.102 392.417Z" fill="black"/>
<path opacity="0.2" d="M321.849 392.959L322.535 392.906C323.431 392.835 324.215 393.505 324.285 394.402L334.423 523.789C334.493 524.686 333.823 525.47 332.927 525.54L332.241 525.594C331.345 525.664 330.561 524.994 330.491 524.097L320.353 394.71C320.283 393.813 320.953 393.03 321.849 392.959Z" fill="black"/>
</svg>
